<svg id="Layer_1" xmlns="http://www.w3.org/2000/svg" width="200" height="80"><style>.st0{fill:#fff}</style><path class="st0" d="M40.8 59.7h-1.5v3.9h1.6c1.4 0 2.3-.6 2.3-1.9-.1-1.3-.8-2-2.4-2z"/><path class="st0" d="M33 54.2v18.2h107.4V54.2H33zm8 10.2h-1.6V68h-.9v-9.1H41c1.7 0 3.1.8 3.1 2.6 0 1.7-1.4 2.9-3.1 2.9zM59.1 68h-1l-3-4.2h-1.2V68H53v-9.1h2.6c1.7 0 2.9.7 2.9 2.3 0 1.3-1 2.3-2.4 2.4.2.3.5.6.7.9l2.3 3.5zm13.5 0h-4.9v-9.1h4.8v.8h-4v3.2h3.4l-.1.8h-3.3v3.6h4v.7zm16.9 0l-.6-5.7-.1-2-.7 1.9-1.8 4.5h-.8l-1.8-4.5-.7-2-.1 2-.7 5.8h-.9l1-9.1h.9l2.4 6 .3.8.3-.8 2.4-6h.9l1 9.1h-1zm11.1 0h-.9v-9.1h.9V68zm15.9-3c0 2-1.2 3.2-3.1 3.2-1.9 0-3.1-1.1-3.1-3.2v-6.1h.9v6c0 1.8 1 2.5 2.2 2.5 1.2 0 2.2-.6 2.2-2.5v-6h.9V65zm17.4 3l-.6-5.7-.1-2-.7 1.9-1.8 4.5h-.8l-1.8-4.5-.7-2-.1 2-.6 5.7h-.9l1-9.1h.9l2.4 6 .3.8.3-.8 2.4-6h.9l1 9.1h-1.1z"/><path class="st0" d="M57.5 61.3c0-1.1-.6-1.6-2.2-1.6h-1.5V63h1.6c1.3 0 2.1-.6 2.1-1.7zM39.9 34l-1 1.4c-.4.6-.7 1.1-1 1.7 0 .1 0 .2-.1.2-.4.6-.7 1.1-1.1 1.6L35 40.7c-.6.6-1.2 1-1.9 1.4-.4.2-2.4 1.3-2.8 1.3-.5.1-2.3-.2-2.8 0-.8.2-2.4-.6-3.2-.8-.8-.3-1.5-.7-2.2-1.2-1.1-.8-1.6-2-1.8-3.6-.1-.9-.1-1.9 0-2.8.1-.6.2-1.1.3-1.7l.4-1.2c.4-1.2 1.1-2.2 1.6-3.3l.4-.7c.4-.7.9-1.3 1.4-1.7.7-.6 1.3-1.2 2-1.7.4-.3.8-.4 1.2-.4.2 0 .3-.1.5-.1.4-.2.9-.3 1.3-.3.1.1.1.1.1 0 .7-.1 1.3.2 1.8.6.1 0 .1.1.2.1s.1 0 .2-.1c.2-.1.3-.2.4-.1.2.2.3.3.2.6-.1.3-.1.5.1.7.1.1 0 .2.1.2l-.3.5c.1.3.1.7.2 1 .1.5.2 1.1.2 1.6 0 .3 0 .6-.1.8-.2 1-.6 1.9-.9 2.8-.2.4-.4.6-.7.7-.1 0-.2.1-.3.1-.2 0-.3-.1-.3-.1-.3-.3-.7-.4-1-.6l-.3-.1c-.2-.1-.3-.3-.2-.6l.2-.8c.3-1.1.6-2.2 1.1-3.2 0-.1 0-.2.1-.3l-.2.2c-.3.7-.9 1.3-1.3 1.9-.4.6-.8 1.3-1.2 2L26 34.6c-.4.8-.7 1.8-1 2.7-.1.3-.1.6-.2.9-.1.4 0 .8.2 1.2l.5 1.1c.1.2.3.4.4.7.3.3 1.7-.2 2.1-.3 1.2-.2 3.8-1.3 4.9-2.2.8-.7 2.4-1.8 3.1-2.7l.8-1c.5-.7 2.1-1.8 2.6-2.5.3-.4 1.2-.9 1.4-1.3.2-.2 0 .8.3.6-.1.5-.9 1.8-1.2 2.2z"/><path class="st0" d="M57.4 35c-.3.6-1.2 1.8-1.2 2.4l-.3.3c-.2.2-.3.4-.4.7-.1.3-.3.4-.4.6-.8 1.4-1.3 2.2-2.6 3.4-.3.3-3.3 3.1-3.5 3.4-1.6 1.3-3.8.7-5.4.8-.4 0-.9-.1-1.2-.2-.5-.3-1.6-.7-1.9-1.2-.5-1.2-1.8-2.1-1.9-3.8-.1-.4-.3-.7-.3-1.2.1-1.8.3-3.6.6-5.4.3-1.3.6-2.7.8-3.9.6-2.4.7-2.7 1.8-4.8.6-1.4 1.1-1.6 1.6-3 .4-.8.8-1.6 1.3-2.2.3-.8.9-1.6 1.4-2.4 1.1-1.8 2.2-3.4 3.4-4.8.8-.8 1.7-1.7 2.6-2.4.5-.4 1-.8 1.5-1 .2-.1.3-.2.5-.2.8-.1 1.5.1 2.1.6.6.5.7 1.3.6 2.3-.1.7-.2 1.3-.3 1.9-.1.5-.3.9-.6 1.5-.6.7-1 1.6-1.6 2.5l-1.2 2.2c-.7 1-1.2 2.1-1.9 3-1.2 1.6-2.2 3.2-3.2 4.8-1.7 2.9-1.6 3.4-2.2 6.4-.2 1.2-.1 1.8-.2 3 .1.3.2 2.5.3 2.7.2.8.3 1.1.7 1.8.1.2.9.4 1.2.5.4.3 3.3-1.7 3.7-2 .9-.5 1.6-1.3 2.4-2.1.8-.8 1.2-1.7 1.9-2.7 1-1.3 1.3-2.4 2.4-3.9.7-.2.3 1-.5 2.4zm-8.9-10c1.8-2.8 2.1-3.3 3.7-6.3.6-1.2 1.1-2.3 1.7-3.5.3-.8.4-1.7.6-2.5.1-.3.1-.4-.2-.3-.3.1-.4.2-.6.3-.7.3-1.4.8-1.9 1.6-.4.4-.7.9-1.1 1.4-.5.6-.8 1.2-1 1.9l-.8 1.8c-.4 1.2-.9 2.3-1.5 3.5l-.6 1.7c-.7 1.9-.4.9-1 2.8-.2.4-.1 1.7.7.9.7-1.2 1.3-2.1 2-3.3z"/><path class="st0" d="M58.8 30.7c-.6-1-.9-2.2-1.1-3.5-.2-.9.1-1.8.6-2.7.1-.1.2-.2.4-.3.4-.4 1-.7 1.7-1.1.5-.3 1.2-.4 1.8-.3.4 0 1.7 1.1 1.9 1.3.3.3.7.6 1.1.8.5.4.8.9 1.1 1.7.2.4.3.8.5 1.2.2.5.2 1.1.3 1.6.1.5.1.9.2 1.3 0 .2.1.7.1.7-.1.7.1 1.3-.1 1.9-.2.3.2.7.6.7 2.7-.2 3.8.2 6.4-.2l.9-.4.4-.2c.1.2.1.4 0 .5-.2.3.4.4.2.6C74.1 36.1 69 36 67 36h-.2c-.2 0-.3.1-.3.2s-.1.2-.1.3c-.2.9-.7 1.8-1.1 2.8-.3.7-.7 1.2-1.1 1.7-.2.3-.4.7-.8.9l-.4.3c-.1.1-.3.2-.3.3-.4.5-.9.9-1.6 1.1-.1 0-.4.1-.6.2-.8.2-1.6.2-2.3.1-1-.1-1.7-.8-2.2-1.8l-.5-1.5c-.1-1-.2-2-.1-3.1s.4-2.1.9-3.1c.5-1.2 1.2-2.3 2.1-3.3.2-.1.2-.2.2-.3.3 0 .3 0 .2-.1zm6.6-2.2c-.1-.7-.2-1.2-.4-1.8-.2-.6-.4-1-.8-1.3-.2-.2-.4-.5-.7-.7-.3-.3-.6-.5-1-.7-.7-.6-1.9.6-2.3 1-1.5 2.1-.1 5 1.3 6.5 1.6 3.2 4.6 2.1 3.9-1.7.2-.4.2-.9 0-1.3zm-4.9 10.8c-.1.3-.1.6-.1.9-.1.1 0 .2.1.3.1.3.3.6.6.7.1 0 .1 0 .1-.1l.2-.2c.9-1 1.6-2.3 2.2-3.6.3-.4.4-.9.6-1.3-1.3-.6-1.9-.1-2.6.9-.7.9-.8 1.4-1.1 2.4zm6.8-8.4c0-.2 0-.2 0 0zm0 0c0 .1.1.1 0 0 .1.1 0 .1 0 0z"/><path class="st0" d="M90.7 32.3c.3.1.7-.2.6 0 0 .3-.2.3-.1.6.1.2-.6 1.8-.7 2.1l-1.1 2.7-1.4 2.7c-.2.4-2.8 3.7-3.1 3.9-.7.5-1.9 1.9-2.6 2.4-.4.3-2.1.9-2.5.9-.7.1-1.5.1-2.2-.1-1.2-.2-2.9-1.9-3.4-3-.3-.5-.6-.9-.8-1.5-.2-.7-.4-1.9-.4-2.7 0-4.7.6-5.3 1.9-9.8l.3-1.1c.1-.4.2-.8.3-1.1l.5-1.8c.3-1.2 1.7-3.3.4-3.6-.4-.1-.7 0-1.1-.3l-1-.6c-.1 0-.3-.1-.3-.4.1-.1.2-.1.3-.1l2.3-.5c.5-.1 1.1-.2 1.6-.2.2-.1.4-.2.6-.4.2-.4.4-.8.6-1.3.6-1.1.9-2.2 1.6-3.2.6-.9 1.1-1.7 1.8-2.3l.4-.4c.2-.2.4-.3.7-.2.3.1.7-.1 1.1-.1.1 0 .1 0 .1-.1.8-.2 1.1.2 1.3.8.3.6.4 1.1.4 1.8 0 .3.1.6.1.9.1.2.1.5 0 .8l-.2.9-.3 1.3c0 .2 0 .3-.1.4.2.1.3.1.6.1l2.1-.2h2.9c.3 0 .7.1 1.1.2l-.2.3-.4.3-1.2.6c0 .1-.1.1-.1.1-.6.1-1.3.3-1.9.3-.4 0-.8.1-1.2.2-.2.1-.5.1-.7.2L86 22c-.2.1-.3.2-.4.4l-.1.2c-.7 1.9-1.6 3.7-2.3 5.5l-.3.6c-.3.6-.5 1.1-.7 1.7-.2.5-.4 1-.7 1.4-.5.2-.5.7-.7 1-.6 1.4-1.3 5.6-1.2 7.7.1.9.3 1.7.6 2.6.1.3.3.4.5.7.1 0 .1.1.2.1.5 0 1.5.1 2-.3.3-.2 2-1.6 2.3-1.8.8-.8 2.7-2.9 3.3-4 .5-.9.8-2.2 1.3-3.1l.9-2.4zm-7.9-8.2c.6-1.4.7-2.5-1.1-1.3-.6 1.8-.8 3.1-1.3 4.8-1.2 4.6.6 1.2 1.3-.9.3-1.1.6-1.6 1.1-2.6zm1.7-6.4l.2-.8.2-1.3c.1-.5 0-1-.1-1.5-.1-.2-.2-.3-.3-.2-.2.2-.4.3-.5.6-.2.4-.4.9-.6 1.4l-.2.5-.3.7c-.1.6-.2 1.2-.4 1.8-.2 1.4 1.3 1.5 1.7.5l.3-1.7z"/><path class="st0" d="M102.7 27.9c1.8-1.7 3.9-2.1 5.8-.9.8 1.4.1 4.7-.3 6.2-.3 1.3-1.7 4.4-2.1 5.6-.4 3.4 4.1.1 4.9-.6.1-.1 2-1.4 2.1-1.5.6-.7 1.2-.7 1.8-1.5.5-.7.8-1.7 1.5-2.2.9-.7.6.2.1 1-.8 1-.9 1.2-1.5 2.3-.3.4-.9 1-1.1 1.6-.2.4-1.2.8-1.5 1.1-.3.4-.7.9-1 1.4-.2.3-2.1 1.7-2.2 1.8-1.8 1.7-6.9 2.1-6.2-3.2.3-1.9 3.1-6.7 3.8-8.4.2-.4.3-.7.4-1.1.1-.3.1-.6.1-.9-1.2-2.1-3.7-.3-4.6 1.1-.2.1-.4.4-.6.7-.2.3-.4.6-.7.9l-2.8 3.5c-.4.4-.8.9-1.2 1.4-.5.7-3.1 5.8-3.4 6.5-.2.3-.3.6-.3 1l-.3.9c-.1.3-.2.7-.3 1.1-.1.5-.3 1.1-.7 1.3-.1.1-.2.3-.3.5h-.3c-.2-.2-.4-.1-.7 0-.4.1.1.1-.3.1-.1 0-.2-.2-.3-.2-.2-.3-.4-.5-.7-.8-.4-.4-.7-1.1-.8-1.9-1.8-6.6 2.6-17.4 4.3-22.9.8-1.7 1.6-3.4 2.6-5.1 1.1-2.1 2.3-4.2 3.6-5.9.8-1.2 1.7-2.2 2.7-2.9 2.4-1.9 6.4 3.3 6.9 5.5.3.5.6 1.5.2 2.3-.2.5-.3-.1-.7-.3l-.4-.2-.7-.2c-.3-.1-.6.1-.8.4l-.8.8c-.8.8-2 2.2-2.6 3.2-.3.6-.7 1.1-1.1 1.4-.2.2-.2.4-.4.6-.4.8-.9 1.6-1.4 2.3l-1.1 1.9c-.6 1-1.1 2-1.6 3-.4.9-.9 1.8-1.2 2.8-.6 1.5-.7 1.6-1 3.1 0 1.4 3.1-2.7 3.4-3.4 1-.6 3.1-2.4 3.8-3.2z"/><path class="st0" d="M118.9 27.6c.2-.3.3-.3.5-.4.6-.1 2-1.1 2.6-.8.2.2.7.5.9.7.2.3.3.7.1 1.2-.3.7-.7 1.4-1.2 2.3l-.3.8c-.2.5-.4 1.2-.7 1.7-.2.7.8-1.4.7-.9 0 .2-.1.3-.2.4-.4 1.1-.4.9-.5 1.9 0 .6-.2 3.4-.2 3.9.1.4.3.6.4.8.2.1.5.3.8.4.3.2.6.1.9.1 4.6-1.7 2.9-2.3 5.6-5.1.5-.7 1.1-1.4 1.4-2.3 0-.1 0-.1.2-.3.3.6-.3 1.3.4 1.5-1.2 2.1-2 5.2-3.9 6.3-.6.7-4.3 4.1-6.8 3.1-.8.3-1.5-.5-2.3-.8-.6-.2-1.1-.7-1.6-1.2-.3-.7-.6-1.5-.6-2.2-.1-.3-.1-.7-.1-1 .2-.7.1-1.9.3-2.4.1-.3.2-.6.2-.9.1-.1 0-.3.4-.4.1 0 .1-.2.2-.3.3-.4.3-.7.6-1.1 0 0-1.2 1.2-.5.1.4-1.1 1.4-2.3 1.8-3.1 0-.1.1-.3.1-.3.2-.3.3-.6.2-.9-.1-.2 0-.4.2-.8.2 0 .2.1.4 0zm5.1-6c-.1.2-.2.3-.3.5 0 .1 0 .2-.1.3l-.6.6c-.1.2-.6.4-.8.4-.1-.1-.3.1-.4.2-.3.2-.6.2-.8.1-.2-.1-.3-.1-.4-.1-.2 0-.4 0-.6-.1l.2-.2c0-.2.1-.3.2-.6s.2-.4.4-.7c0-.1.2-.2.2-.3 0-.3.3-.6.4-.9l.3-.5c.1-.1.2-.2.3-.2.1-.1.2-.1.3 0 0 .1.1.1.2.1.1-.1.2-.1.2-.1.2.1.5.2.7.2.4.2.7.4.9.8-.1.2-.2.4-.3.5z"/><path class="st0" d="M140.5 32.3c-.7.8-1.7 1.7-2.3 2.6-.5.7-1.1 1.3-1.7 1.9-.4.4-.7.8-.9 1.3-.3.4-.5.8-.8 1.1-.2.2-.4.4-.4.6-.6.6-1.4 4.1-1.8 4.7-.3.3-.4.3-.7.3-.2 0-.4.1-.8.3-.3.2-.7.2-.9.2-.6-.2-1.2-.1-1.8-.2-.4-.1-.8-.1-1.1-.2-.8-.3-1.3-1.2-1.1-2.3.4-2 .9-4.1 1.7-6.1.4-1.1.8-2.1 1.3-3.1l1.8-4.2c.6-1.2 1.3-2.3 1.9-3.4.4-.7.8-1.3 1.1-2 .3-.5.5-1 .6-1.5 0-.2.1-.2.1-.4.3-.2.6-.1.7.1.4.5.9.8 1.5 1 .1 0 .2.2.3.3l.8 1.1c.3.4.3 1 .2 1.6-.1 2.1-.7 4.1-1.7 6.2-.4.9-.2.8-.8 1.7-.7 1.2-.2 1.9.5 1.5 1.1-1.1 1.2-1.2 2.3-2.4 1.3-1.6 1.9-1.9 3.1-3.3l1.1-1.1c.3-.5.7-.7 1.2-.8h.6c.7.1 1.4.1 2.1.2.5.1.8.4 1 .8.2.3.2.5.2.8.1.8.2 1.4 0 2.3-.2 1.1-.3 1.7-.6 2.7-.3 1.2-.4 3.6-.3 4.6.1 1.3 1.9.9 2.5.7.3-.1.5-.3.8-.4 1.1-.7 3.4-2.5 4.2-3.5.2-.2 1.9-1.5 2.1-1.8.4-.7.4-1.1.9-1.7.1-.2.1-.3.3-.5 0 .1 0 .2.1.3.1.3-.1.6 0 .9 0 .4.1-.1-.1.3-.2.2-.2.4-.2.7-.1.3-.2.6-.3.8-.5.7-1.1 1.9-1.6 2.4-.4.5-2.6 2.9-3.1 3.3-.2.2-.6.3-.8.5l-.7.2c-.8.3-3.7.4-4.7.1-2.4-.8-3.6-2.7-3.6-5.9.1-.7.1-1.4.1-2.1.2-1.2.4-3.8-.8-2.6-.7.6-1.1 1-1.5 1.4z"/><path class="st0" d="M155.3 62c-.1 0-.3-.1-.5 0-.4-.1-.7-.1-1.2-.2-.2 0-.3-.1-.4-.3-.2-.9-.3-1.8-.3-2.8-.1-.7.1-1.5.6-2.3.9-1.7 1.8-3.4 3-5.1 1.1-1.6 2.3-3.1 3.8-4.6.3-.3.5-.7.7-1.1.1-.7 1.7-4.7 1.8-5.4-.1-.2-2.4 2.6-2.5 2.7-1.2.8-1.4.8-2.4.8-1.1-.1-1.8-.7-2.4-1.3-.4-.3-.7-.8-.8-1.5-.3-1.4.4-3.9.9-5.7.2-.5.3-.9.5-1.3.4-1.3.9-2.5 1.6-3.7.7-1.2 1.4-2.3 2.2-3.4.4-.4.7-.9 1.1-1.3.8-.8 1.1-.8 2-1.4.1-.2.3-.3.4-.4.4-.3.8-.5 1.2-.3.2.2.6.2.9.1h.5c1 .3 2.8 2.1 3.7 2.7.4.2.7.4.9.7.2.2.3.4.2.7-.1.3-.2.6-.6.7-.3.1-.6.1-.8 0-.2-.2-.7-.3-1.1-.2-.2 0-.4.1-.6.2-.4.3-.9.6-1.2.9l-1.6 1.8c-.7.6-1.2 1.4-1.6 2.2-.2.2-.3.5-.5.6-.8 1.1-1.5 2.2-2.1 3.3-.3.3-.6.8-.7 1.2-.3.7-1 1.9-1.2 2.7-.4 2.3 1.8-.2 2.2-.6.9-.8 1.1-.9 1.7-1.9.3-.4.8-.9 1.1-1.3.9-1.4 2.1-2.4 3-3.8.7-.9 1.1-1.2 1.9-2 .1-.2.4-.3.7-.3.4.1.6-.4.9-.3.6.2.7 1.1.4 1.9-.1.1-.1.1-.1.2-.6.9-1.3 1.8-1.8 2.7-.2.3-.4.8-.6 1.1-.3.7-.8 2.5-1 3.2-.6 2.6-.2 3.5 2.1 2.1 2.3-2.2 5.8-3.2 7.3-5.8.4-.7.7-1.3 1.2-1.9.6-.4.6-2.4 1.7-1.5.4.4.2.2 0 .5l-.2.4c-.4.4-.5.6-.7 1.2-.2.4-1.2 1.6-1.3 2.1-1.1 2.4-4.9 4.2-7 5.8l-2.8 2.4c-.9.7-1.4 1.3-1.6 2.4-.1.2-.2.6-.2.8-.2.9-.4 1.8-.5 2.7v.1c-.3.8-.3 1.6-.6 2.4-.1.6-.2 1-.3 1.6-.1.6-.3 1.1-.4 1.7-.1.3-.3.7-.5.9-.2.2-.3.4-.5.7-.2.4-.6.8-.9 1.2l-.9.7c-.5.3-.9.7-1.2 1-.3.3-1.3.1-1.5.4-.1.1-.2.3-.4.1 0 0-.1.1-.2.1-.3.1-.3.1-.5 0-.6.1-1.3.2-2 0zm1.6-8c-.2.3-.2.6-.3.8-.6.9-.9 1.8-1 2.8-.2.9.1 1.6.6 2.1.1.2.3.2.6.1.4-.2.8-.5 1.1-1 0-.2.1-.4.2-.5.2-.2.3-.4.3-.7-.1-.6 0-1.2.2-1.8.2-.3.3-.8.3-1.2.1-.3.1-.5.4-.8-.1-.3-.1-.6.1-.8.1-.2.1-.3.1-.5 1.7-4.8-.9-1.4-1.9.5-.3.3-.5.6-.7 1z"/></svg>