<svg id="Layer_1" xmlns="http://www.w3.org/2000/svg" width="200" height="80"><style>.st0{fill:#fff}</style><path class="st0" d="M109.8 30.1l-3.9 8.6c-.2.4-.5.8-.8 1.2l-.5.6c-.3.3-.9.7-1.5 1h-.1c-.3.1-1.5.4-3.5-.6-.1.2-.2.3-.2.3-.2.2-.3.3-.3.4-.2.3-.5.5-.7.7l-.2.2-.4.3c-.4.3-.8.5-1.3.6-1.9.6-3.9.4-4.4-2 0-3 3.3-5.9 6-3.1l.1.1c1.2-2.5 3.2-6.6 3.1-8.4 0-.3-.2-.9-.8-1.2-1.4-.7-3.7 1-5.1 2.5 0 0-.6.6-1.3 1.5-.5.8-1.1 1.7-1.5 2.6l-1.4 4.3-3.1 9.6c-.2.5-.4 1-.6 1.7-2.3 6.7-5.2 5.8-5.2 5.8-.4-.2-.7-.4-.9-.7-1.1-1.5 0-4.5 0-4.6.7-1.8 1.7-3.8 2.6-5.3.3-.4 1.9-2.9 3.6-4.1l.2-.6 2-6 2.5-7.6c-2.6 2.4-6.8 3.1-9.4.1-3.5.7-6.9.9-10.5 1.5-3.5.7-8.2 3.1-7.3 7.6.5 1.4 2 3.2 3.8 2.5.8-.3 1.8-1.3 1-2.2-.3-.3-.7-.6-1.1-.4h-.1c-.5.3-1.1.3-1.4-.1-.3-.4-.3-1.1.2-1.4.6-.5 1.5 0 2.1.3.4.3.8.6 1 .9 1.1 1.3.1 2.9-1.3 3.5-2.1 1.2-4.5-.9-4.9-3-1-5.4 4-7.8 7.9-8.6 3.4-.6 6.8-.9 10.2-1.5-.5-.9-.3-2.5.6-3.2.9-.7 2.2-.7 2.7.6.2.8-.2 1.6-.7 2.1-.4.4-.9.7-1.5.9 1.6 1.6 4.2 1.8 6.3.7.4-.3.9-.6 1.3-.9l.6-.6c.3-.2.5-.5.9-.7l.1-.1s.7-.6 1.4-.7c1.2-.2 1 1.1 1 1.7l-1.3 4 1-.9c.4-.3.9-.7 1.5-1.1.9-.6 2-1.1 3.3-1.5 4.5-.7 4.2 3.7 2.7 7.8 0 0-.6 1.8-1.7 3.7-.1.2-.2.3-.3.5 0 .1-.1.2-.2.3.8.4 1.6.7 2.4.6.5-.2 1-.5 1.4-.9.6-.8 1.3-1.7 1.8-3l2.8-6.5h1.3zM87 44c-2.5 3.2-5.2 7.9-4.5 10.2.2.2.4.2.6 0 .8-.8 1.5-3 1.5-3l2.1-6.6.3-.6zm-3.8-17.1c.8-.2 1.7-.7 1.9-1.7.2-.9-.8-1.3-1.5-.7-.7.5-.7 1.6-.4 2.4zm14.3 12.6l-.4-.5c-.5-.4-1.1-.7-1.7-.8-1.1.2-1.8 1.2-2 2.3 0 .9.6 1.8 2.3.8.7-.4 1.3-1 1.8-1.8z"/><path class="st0" d="M129.5 30.1c-2.4 5.3-6.6 14.2-11.3 13.4-1.1-.2-1.9-.6-2.4-1.3-.4-.5-.7-1.1-.8-1.8-.3-1.4 0-3.3.4-4.9-1.9 3.4-4.3 6.6-6.9 6.2-.9-.1-1.5-.5-2-1-.3-.4-.5-.9-.6-1.4-.3-1.8.3-4.2.8-5.8l1.9-6.1s.6-.9 1.8-.7c1.2.3.8 1.5.8 1.5-1.5 4.7-1.7 5.9-2.2 7.6-.2.6-.8 2.9.3 4 0 0 .9.8 2 .1 1.3-.9 2.7-3.1 3.8-5.1.7-1.2 1.2-2.5 1.8-3.8l2.2-6.3s.7-1.2 2.1-.9c1.5.3 1 1.8 1 1.8-1.9 5.7-2.8 8.8-3.4 10.7-.2.7-.9 3.6.3 4.9 0 0 1.1.9 2.5.1 1.6-1.1 3.3-3.8 4.6-6.3.8-1.5 1.5-3 2.2-4.7h1.1z"/><path class="st0" d="M146.7 30.1c-3.8 8.7-6.7 11.2-8.7 11.2-5.4 0-4.2-8.8-4.2-8.8.3-2.2.9-4.8 2.1-7.8 0 0 1.2-2.9-.7-2.7-.9.2-1.8.3-2.7.4-.9 2.4-2.1 5.4-3.8 9.1l-.9-.2s2-4.5 3.6-9c-2.8-.3-4.9-2.1-4.3-5.5.5-2.5 2.2-5 5.5-4.4 1.5.4 1.6 2.4 1.5 4.1-.2 1.1-.5 2.5-1 4.3.8.1 1.5.1 2.4-.2 1.4-.3 2.9-1.1 4.1-.8 1.9.6.5 4-.8 8.1-.2.7-1.9 6.1-.9 9.6.3.9.7 1.5 1.4 1.6 1.6.2 3.7-3.3 5.1-6.1.9-1.7 1.4-3.1 1.4-3.1h.9zm-13.6-13.9c.1-.5.4-3-1.2-2.9-2.8.8-2.5 6.1.1 7 .5-1.4.9-2.9 1.1-4.1z"/><path class="st0" d="M190.3 21.7c-1.1 3.6-4.8 5.1-8.4 5.6-3.4.4-6.9.3-10.3.9.5 1.4-.3 3.8-2.3 3.5-.6-.1-1.1-.5-1.2-1.1-.2-1.4 1-2.5 2.3-2.9-2.7-3.1-8.2-1.4-9.8 2.3v.1s-2.4 6-5.9 10c-1.8 2-3.9 3.5-6.1 3.5-2.9-.2-5.5-2.6-5.7-5.7-.5-4.5 1.9-11 6.6-13 2.9-1.3 5.6.1 4.9 3.7-1 4.3-5.3 5.4-7.2 4.8-.3-.2 0-.4.2-.4.3 0 .9 0 1.7-.2 2.3-.6 4.9-5.2 2.2-5.4-4.5 1-7.8 11.9-3.1 14.3.9.4 5.8 1.9 11.4-11.2l.2-.4V30c1.9-4.2 8.3-7 11.6-2.6 3.4-.6 6.9-.4 10.5-.9 3.2-.4 6.6-1.7 7.7-5.1.6-1.8-1-5.6-3.5-4.8-.8.3-1.8 1.2-1.2 2.1.3.3.7.6 1.1.4h.1c.5-.3 1.1-.3 1.5.3.3.4.2 1.1-.3 1.4-.7.4-1.5-.1-2.1-.5-.4-.3-.7-.6-1-1-1-1.4.1-2.9 1.5-3.4 3-1.3 5.4 2.9 4.6 5.8zm-19.4 6.6c-.8.2-1.7.7-1.9 1.6-.3 1 .7 1.3 1.4.8.5-.4.9-.7.5-2.4zM49.1 32.8c-1.3-.7-3.4.8-4.8 2.2 1.8.1 3.6.3 5.4.6.2-.6.3-1.1.2-1.5-.1-.4-.2-1-.8-1.3zM39.7 35c-.8-.1-1.7-.1-2.5-.2h2.6l1-3c-2.6 2.5-6.9 3.1-9.5.1-3.5.7-7 .9-10.7 1.6-3.5.6-8 3-7.4 7.3.7-.1 1.4-.2 2-.3 0-.3.1-.7.4-.9.6-.5 1.6 0 2.1.3.1.1.2.2.3.2 2.3-.2 4.6-.4 7-.5-2 .5-3.9 1.1-5.9 1.8.5 1.2-.4 2.5-1.6 3.1-.9.5-1.9.4-2.8-.1-.1 1.3.1 3 .5 3.1-.4 1.5-.2 4.5.6 4.2 6.3-2.4 12.7-3.9 19-4.3.4-.4.8-.8 1.3-1.2l.2-.6 2-6.1 1.4-4.5z"/><path class="st0" d="M17 43.7c.7-.3 1.6-1.2 1.2-2-.9.3-1.9.7-2.8 1-.2.1-.4.4-.5.7.6.5 1.3.7 2.1.3zm32 .2c0 .1-.1.2-.2.3.8.4 1.7.7 2.5.6.5-.2 1-.5 1.5-1 .6-.8 1.3-1.8 1.8-3l1.4-3.2c-1.3-.3-2.7-.6-4-.9-.2 1-.5 2-.9 3.1 0 0-.6 1.8-1.8 3.7 0 .1-.2.2-.3.4z"/><path class="st0" d="M12.1 31c.6-.2 1.2-.3 1.8-.4.1.6.3.9.6.8 2.2-.7 4.5-1.4 6.7-2 2-.2 4-.3 6-.2-4.4.8-8.7 2.2-13.1 4-.5.2-.7 1.4-.7 2.5-.3.1-.6.2-.8.4-.8.4-.9 3.9-.2 4.6-.5-5 4.4-7.2 8.1-7.9 3.4-.6 6.9-.9 10.4-1.5-.5-1-.3-2.5.6-3.3.9-.7 2.3-.7 2.8.6.2.8-.2 1.6-.7 2.2-.4.4-.9.7-1.5.9 1.6 1.6 4.2 1.9 6.4.7.4-.3.9-.6 1.3-.9l.6-.6c.3-.2.5-.5.9-.7l.1-.1s.7-.6 1.4-.7c1.2-.2 1.1 1.2 1 1.7l-1.2 3.7h.3l.6-.5c.4-.4 1-.7 1.5-1.1 1-.6 2-1.1 3.4-1.5 3.1-.5 4 1.5 3.7 4.2 1.4.3 2.8.6 4.3.9l1.1-2.6h1L57.2 37c3.3.8 6.5 1.8 9.8 2.9.9.3 1.3-4.1.3-4.6-.7-.3-1.4-.7-2-1 .1-1.1-.1-2.2-.5-2.4-1.5-.8-3-1.4-4.5-2 2.2.5 4.4 1 6.6 1.6.9.2 1.2-4 .3-4.4-1.2-.5-2.3-1-3.5-1.5.6-.7.7-3.4 0-3.9 0-.8-.2-1.4-.5-1.5H63c-.7-.2-1.4-.3-2.1-.4-7.3-4.3-15.1-3.7-22.4-3.5-2.5.1-5 .3-7.5.5-2.2 0-4.4.1-6.6.3-3.8.3-8.5-1.3-12.2 2.8-.8.8-.6 4.5.2 4.3 1-.2 2-.4 3.1-.6 0 .6 0 1.3.2 1.7-1.2.3-2.4.5-3.6.9-1 .4-1 5 0 4.8zm8.1-8.1c.3-.1.6-.1.9-.2-1.4.6-2.8 1.4-4.2 2.3 1.1-1 2.2-1.6 3.3-2.1z"/><path class="st0" d="M33.4 29.3c.2-1-.8-1.3-1.5-.7-.7.5-.7 1.7-.4 2.4.9-.2 1.8-.8 1.9-1.7zm-2.6 29.5c.2.2.4.2.6 0 .8-.8 1.6-3.1 1.6-3.1l2.1-6.7.2-.6c-2.5 3.2-5.2 8-4.5 10.4zm13-16.2c-1.1.2-1.9 1.2-2 2.3 0 .9.6 1.8 2.3.8.7-.5 1.3-1.1 1.8-1.9l-.1-.1-.3-.4c-.4-.4-1-.7-1.7-.7zm-1.4-7.4z"/><path class="st0" d="M68.3 51.8c-1.8-1.6-3.6-2.9-5.4-3.9.3-.9.4-2.5.1-3.4l3.9 1.2c.9.3 1.3-4.3.3-4.7-3.5-1.4-6.9-2.5-10.4-3.3l-2.3 5.2c-.2.4-.5.8-.8 1.2l-.5.6c-.4.3-.9.7-1.6 1h-.1c-.3.1-1.5.4-3.5-.6-.1.2-.2.3-.2.3l-.4.4c-.2.3-.5.5-.7.7l-.2.2-.3.3c-.4.3-.8.5-1.3.6-1.9.6-4 .4-4.4-2 0-3.1 3.4-6 6.1-3.1l.1.1c.9-1.8 2.1-4.4 2.7-6.4-1.9-.3-3.7-.6-5.6-.8-.2.2-.7.7-1.2 1.5s-1.2 1.7-1.6 2.6l-1.4 4.4-3.2 9.8c-.2.5-.4 1.1-.6 1.7-2.3 6.9-5.2 5.9-5.2 5.9-.4-.2-.7-.4-.9-.7-1.1-1.6 0-4.5 0-4.7.7-1.8 1.8-3.8 2.7-5.3.2-.3 1.1-1.7 2.2-2.9-6 .7-11.9 2.5-17.9 5.5-.3.2-.5.9-.6 1.7-.9.2-1.9.4-2.8.7-.7.2-.9 3.1-.5 4.3-.9.7-1.8 1.5-2.7 2.6-.8 1-.6 4.9.3 4.7 4.2-1 8.3-1.9 12.5-2.8.1.4.3.6.5.6 7.5-1.3 15-2.5 22.5-2.6 6.9.4 13.8 2 20.6 5.4.9.5 1.2-4 .3-4.5-.9-.5-1.9-1-2.8-1.5 0-.9-.2-1.8-.6-1.9-1.7-.5-3.5-.9-5.3-1.2-.7-.2-1.4-.3-2.1-.5-1.8-.7-3.7-1.4-5.5-1.9 5.6.5 11.1 1.7 16.7 3.8.7.3 1-1.9.9-3.4.8-.5 1.1-4.1.2-4.9zm32.7 6c0 1.8-1.5 3-3.8 3h-3.3v-11H97c1.8 0 3.4 1 3.4 2.7 0 1.1-.8 1.9-1.7 2.4 1.1.4 2.3 1.2 2.3 2.9zm-6-7v3.9h2c1.4 0 2.3-.9 2.3-2s-.8-1.9-2.7-1.9H95zm4.9 7c0-1.4-1.3-2.2-2.6-2.2H95v4.3h2.2c1.7-.1 2.7-.7 2.7-2.1zm3.3-2.4c0-3.7 1.7-5.8 4.6-5.8 2.9 0 4.4 2.1 4.4 5.6 0 3.6-1.7 5.8-4.6 5.8-2.9 0-4.4-2.1-4.4-5.6zm7.9-.1c0-3.3-1.4-4.8-3.4-4.8s-3.4 1.4-3.4 4.8c0 3.3 1.3 4.7 3.4 4.7 2.1.1 3.4-1.4 3.4-4.7zm4.1 1.9v-7.3h1.1V57c0 2.2 1.2 3 2.7 3 1.4 0 2.7-.8 2.7-3v-7.2h1.1v7.3c0 2.4-1.5 3.9-3.7 3.9-2.5 0-3.9-1.3-3.9-3.8zm17.2-6.4h-3.2v10h-1.1v-10h-3.3v-.9h7.7l-.1.9zm2.1-1h1.1v11h-1.1v-11zM145.8 60l1.5 2.7v.1h-1.1l-1.2-2.2c-.6.3-1.3.5-2 .5-2.9 0-4.4-2.1-4.4-5.6 0-3.7 1.7-5.8 4.6-5.8 2.9 0 4.4 2.1 4.4 5.6-.1 2.1-.7 3.7-1.8 4.7zm-1.3-.2l-1.4-2.5v-.1h1.1l1.1 2c.7-.8 1.1-2 1.1-3.8 0-3.3-1.4-4.8-3.4-4.8s-3.4 1.4-3.4 4.8c0 3.3 1.3 4.7 3.4 4.7.6 0 1.1-.1 1.5-.3zm6-10h1.1v11h-1.1v-11zm10.7 10v1h-5.9v-11h5.9v1h-4.8v3.8h4.1l-.1.9h-4v4.3h4.8z"/></svg>