<svg id="Layer_1" xmlns="http://www.w3.org/2000/svg" width="200" height="80"><style>.st0{fill:#fff}</style><path class="st0" d="M95.1 29.3c.1-.2.2-.1.3 0 .1.2-.1.6-.2.8-.8 1.5-2 2.5-2.3 2.8-.4.4-.9.5-1.5.5-.7 0-1.1-.4-1.4-.9-.1-.1-.1-.2-.2-.1 0 0-.1 0-.1.1-.6 1.1-.9 1.5-1.8 1.6-1.5.2-2.4-.9-2.5-2.8 0-.7-.2-3.2 1-2.8.2.1.4.3.4.5.1.2.1.4 0 .7-.1 1.5-.4 1.3-.1 2.8.1.8.4 1 1 1s1.6-1.1 1.8-3c.1-.3 0-.6.2-.8.1-.2.4-.3.6-.3.2 0 .4.1.5.3.1.2.1.4.1.6 0 .8-.1 1.6.2 2.3.1.2.5.6 1.2.2.8-.7 1.1-1 1.5-1.4.5-.6 1-1 1.3-2.1z"/><path class="st0" d="M98.8 32c-.1.6-.1 1.3-.1 1.9.1.6.5.8 1.1.7.4-.1.8-.4 1.1-.7 1.2-1.3 1.9-2.8 2.3-3.8.1-.2.2-.6.3-.7.1-.1.3-.1.4 0 0 .1-.2.6-.3.8l-.2.6c-.4.7-.6 1.4-1.6 2.8-.4.6-.9 1.1-1.6 1.4-.3.2-.7.3-1 .3-.5-.1-.9-.3-1.1-.7-.4-.7-.6-1.5-.5-2.2 0-.7.1-1.3.2-2 0-.2-.1-.4-.3-.4-.3 0-.6 0-.9-.1-.1-.1-.7-.2-.9-.2h-.2c-.1.1-.1.1-.2.1h-.2c-.1-.1-.1-.3-.1-.4 0-.2 0-.3-.1-.5s-.3-.3-.5-.5c-.5-.5-.7-1.2-.7-1.9 0-.5.1-.8.3-1.2.2-.3.5-.5.9-.6.4-.1.8 0 1 .3.2.2.3.4.3.7.2.8-.1 1.6-.2 2.5 0 .2-.1.4 0 .6.1.3.6.4 1 .4h1.1c.7 0 1 .4 1 1-.1.6-.3 1.2-.3 1.8zm-3.1-6.6c-.1-.2-.4-.3-.7-.2-.3.1-.5.4-.6.7-.1.8 0 1.7.6 2.3.2.1.4.1.5-.1.2-.5.3-1.1.4-1.6.1-.4 0-.7-.2-1.1z"/><path class="st0" d="M104.7 29.1c-.1.1-.1.2-.1.4 0 1.3.2 2.5.7 3.7.3-.6.5-1.3 1-1.9.4-.6 1-1 1.7-1.1.7-.1 1.5.2 1.8.8.2.3.2.7.6.8.2.1.4.1.6 0 1.1-.3 2-1.4 2.3-2.5.1-.1.1-.2.2-.2s.1.2.1.3c-.3 1.3-1.4 2.4-2.7 2.7-.2.1-.4.1-.6.2-.2.2-.2.4-.3.7-.2 1.2-.8 2.2-1.7 3-.2.2-.5.5-.9.4-.6 0-.9-.8-.8-1.4.1-.8.4-1.6 1.1-2.1.3-.2.6-.4.9-.7.3-.3.5-.7.3-1.1-.2-.4-.7-.6-1.1-.5-.4.1-.8.4-1.1.8-.8 1-1.3 2.2-1.3 3.5 0 .2-.1.5-.2.4-.1 0-.1-.1-.1-.1-1.5-2.7-1.8-6-1.6-9.1v-.5c.1-3.1.6-6.1 1.6-9 .5-1.4 1.1-2.8 1.9-4.1.7-1.2 2-2 3.4-2.1 1.1-.1 2.3.2 3.2.9.2.1.3.3.5.5.3.3.6.7.7 1.2.3 1 .1 2-.2 3-.7 2.7-1.8 5.2-3.4 7.5-1.6 2.3-3.4 4.2-6.2 5.4-.1-.1-.2 0-.3.2zm.8-1c1-.4 1.8-1.1 2.6-1.7.7-.6 1.2-1.2 1.7-1.8 1.4-1.8 2.6-3.8 3.5-5.9l.6-1.5.2-.5c.1-.4.2-.8.4-1.2.1-.4.1-.7.1-1.1v-.8l-.1-.4c-.2-.7-.7-1.3-1.2-1.7-.2-.1-.5-.2-.7-.3-.5-.2-1.1-.3-1.6-.3h-.7c-1.2.2-1.9 1-2.7 1.9-.2.3-.4.7-.6 1.1-.9 1.8-1.5 3.8-1.8 5.7-.4 2.7-.7 5.5-.5 8.3-.1.4.4.4.8.2zm3.4 4.9c0-.2-.1-.3-.2-.2-.1.1-.2.1-.3.2-.8.5-1.1 1.3-1.3 2.2v.4c.1.1.1.3.2.4.1.2.4.2.5 0l.2-.3c.4-.7.7-1.6.9-2.4V33z"/><path class="st0" d="M122.4 29.4c-.3.7-.6 1.3-.9 1.9-1.1 1.9-2.6 3.7-4.5 2.1-.8-.7-1.1-1.5-1.3-2.1 0-.1 0-.3-.1-.2-.1 0-.1.1-.2.2l-.7.7c-.3.2-.7.4-1 .4-.4-.1-.7-.3-.8-.6-.3-.5-.5-1.2-.2-1.7.2-.6.8-1.1 1.4-1.3.5-.2 1-.2 1.4.1l.2.2c0 .1 0 .2-.1.2-.2.1-.3 0-.4-.1-.4-.2-.9 0-1.2.4-.2.4-.4.8-.4 1.3 0 .3.2.7.5.7.2.1.5-.1.7-.3.4-.5.8-1.1 1-1.7.2-.6.4-1.3.6-1.9.1-.2.2-.4.4-.5.3-.1.5.2.6.5 0 .2-.1.5-.2.7-.2.7-.5 1.4-.5 2.1 0 .5.2 1.2.8 2.3.8 1.2 2.2.4 3-.8.5-.8 1.1-1.9 1.5-2.8l.1-.2c.1-.1.3-.1.4.1 0 .2 0 .2-.1.3z"/><path class="st0" d="M132.9 29.4c.1 0 .2.1.1.3-.2 1.6-1.2 4.3-2.5 5.4-2.1 1.9-3.4-.3-3.3-3 0-.7.2-1.6-.1-2.3-.6-1.1-1.7.1-2 .6-.9 1.5-1.3 3-1.8 4.5 0 .1-.1.1-.1.2-.1.1-.3.2-.4.1l-.2-.2c-.2-.4-.3-.8-.4-1.3-.2-1.5-.5-3.1-.3-4.6.1-.3.2-.4.5-.5.2 0 .3.1.4.2.2.4.1.8.1 1.1v1.6c-.1.6 0 1.1.1 1.6l.1.1s.1 0 .1-.1c.4-1.1.7-2.1 1.4-3 .6-.8 1.4-1.5 2.5-1.2.4.1.6.3.7.7.3.7.2 1.6.1 2.3 0 1-.1 3.9 1.9 3 .5-.3 1.6-1.8 1.9-2.8.2-.7.8-1.9.8-2.7.3 0 .3-.1.4 0zm15.9-.2c.2.1 0 .5-.1.6-.4.8-1 1.1-1.8 1.3-.5 0-1-.2-1.4-.5.3 1.1.2 2.2-.1 3.2-.2.6-.4 1.2-.9 1.5-.4.4-1.1.5-1.6.2-.6-.2-.9-.9-1.3-1.5-.1-.1-.2-.4-.3-.1-.1.5-.3 1-.6 1.3-.3.4-.8.7-1.3.5-.2-.1-.4-.2-.6-.4-.4-.4-.5-.9-.6-1.5-.2-.8-.2-1.6-.1-2.5.1-.7.1-1.3.2-2.1.1-.2.1-.4.2-.5.2-.2.4-.2.6 0 .2.1.3.3.3.5.1.2 0 .5 0 .7-.1 1.1-.4 2.1-.3 3.1.1.5.1 1 .3 1.6.1.2.2.3.4.4.2.1.5-.1.7-.4.4-.6.5-1.3.5-2 0-.3 0-.5.1-.8.1-.2.3-.4.5-.3.2 0 .4.2.5.5.2 1 .4 2.1 1.3 2.8.5.4.8.3 1.2 0 .3-.3.5-.8.6-1.3.2-.9.2-1.9 0-2.8 0-.2-.1-.4-.2-.5-.2-.3-.6-.5-.9-.7-.2-.1-.5-.3-.6-.5-.1-.2-.1-.5 0-.8.2-.2.5-.2.7-.2.3.1.4.2.6.4.2.2.4.5.5.9.1.1.1.3.2.4.1.1.2.2.4.3.3.2.6.5 1 .5.7.1 1.3-.7 1.7-1.3 0 0 0-.2.2 0zm-4 0c-.2-.3-.3-.6-.7-.7h-.2s-.1.2 0 .2c.2.2.4.4.7.5h.1c.1.1.1 0 .1 0z"/><path class="st0" d="M152.3 29c.2.3.1.4.2.7.3.3 1 .6 1.3.7.8.2 1.8.1 2.3-.7l.1-.3c0-.1.1-.1.2 0 .2.1.1.3 0 .4-.5 1.1-1.8 1.2-2.8 1-.4-.1-1-.4-1.1-.5 0 .2 0 .5-.1.7 0 .2-.1.2-.2.7-.2.5-.5 1-.9 1.4-.4.4-1 .7-1.5.6-.5 0-.9-.3-1.2-.7-.3-.4-.4-.8-.5-1.3-.1-.7 0-1.5.4-2.2.2-.4.5-.6.8-.7.4-.1.8-.2 1.3-.3.5-.1 1-.1 1.3.3.2 0 .2-.1.4.2zm-.6 1.1h-.2c-.4 0-.7-.1-1-.3-.1-.1-.2-.1-.3-.2-.2-.1-.3 0-.4.1l-.2.2c-.2.4-.2.8-.2 1.3s.1 1 .2 1.4c.2.4.6.5 1 .3.2-.1.4-.2.6-.4.4-.4.6-.9.7-1.4 0-.2.1-.4.1-.7-.1-.2-.1-.3-.3-.3zm-1.1-.9c.2.3.5.4.8.4.2 0 .2 0 .4-.1.1 0 .1-.2.1-.3-.1-.3-.6-.7-.9-.6h-.1c-.3.2-.5.4-.3.6z"/><path class="st0" d="M159.9 32c-.1.6-.1 1.3-.1 1.9.1.6.5.8 1.1.7.4-.1.8-.4 1.1-.7 1.2-1.3 1.9-2.8 2.3-3.8.1-.2.2-.6.3-.7.1-.1.3-.1.4 0 0 .1-.2.6-.3.8l-.2.6c-.4.7-.6 1.4-1.6 2.8-.4.6-.9 1.1-1.6 1.4-.3.2-.7.3-1 .3-.5-.1-.9-.3-1.1-.7-.4-.7-.6-1.5-.5-2.2 0-.7.1-1.3.2-2 0-.2-.1-.4-.3-.4-.3 0-.6 0-.9-.1-.1-.1-.7-.2-.9-.2h-.2c-.1.1-.1.1-.2.1h-.2c-.1-.1-.1-.2-.1-.3 0-.2 0-.3-.1-.5s-.3-.3-.5-.5c-.5-.5-.7-1.2-.7-1.9 0-.5.1-.8.3-1.2.2-.3.5-.5.9-.6.4-.1.8 0 1 .3.2.2.3.4.3.7.2.8-.1 1.6-.2 2.5 0 .2-.1.4 0 .6.1.3.6.4 1 .4h1.1c.7 0 1 .4 1 1 0 .5-.2 1.1-.3 1.7zm-3.1-6.6c-.1-.2-.4-.3-.7-.2-.3.1-.5.4-.6.7-.1.8 0 1.7.6 2.3.2.1.4.1.5-.1.2-.5.3-1.1.4-1.6.1-.4 0-.7-.2-1.1z"/><path class="st0" d="M171.5 29.2c.1 0 .2.1.2.2.1.1-.1.3-.1.5-.4 1-.9 1.7-1.6 2.5-.4.5-.8.9-1.3 1.2-.5.3-1.2.4-1.7.2-.8-.2-1.3-1-1.6-1.7l-.2-.6c-.8-2.3-.7-4.8-.4-7.2.3-2.5.8-5 1.9-7.3.6-1.2 1.3-2.4 2.4-3.1.7-.4 1.4-.7 2.2-.7.5-.1.9 0 1.3.2.8.5.9 1.7.8 2.6-.2 1.5-.7 2.9-1.3 4.3-1.4 3.1-3.4 5.7-5.8 8-.1.1-.2.2-.2.3-.1.1-.1.3 0 .4.2 1.2.3 2.5 1.1 3.5.3.4.7.8 1.3.7.4 0 .7-.3 1-.6.9-1 1.6-2.1 2.2-3.4h-.2zm-5.8-1.1c1.4-1.3 2.8-2.8 3.8-4.4 1-1.4 1.7-3 2.4-4.6.4-1.1.8-2.1 1-3.3.1-.6.1-1.2-.3-1.8-.8-.9-2-.6-2.8-.1-1 .7-1.6 1.7-2.1 2.8-.8 1.9-1.2 3.9-1.6 5.9-.3 2-.5 3.8-.4 5.5z"/><path class="st0" d="M180.4 29.4c-.5 1.6-.8 2.7-1.5 4.2-.3.6-.6 1.1-1.2 1.4-.5.3-1.2.2-1.8-.1-.4-.2-.7-.5-1-.9-.7-.7-1.1-1.7-1.2-2.7 0-.1-.1-.1-.1-.1h-.1c-.2.4-.3.8-.4 1.3-.2.5-.3.9-.5 1.3-.5.9-1.6.4-1.9-.4-.4-.7-.3-1.8-.2-2.6.1-.6.4-1.4 1-1.8.4-.2.9-.4 1.4-.3.1.1.2.1.4.2.1 0 .2 0 .2-.1.2-1.8 0-3.6.1-5.4 0-1.2 0-2.3.1-3.4 0-.9.1-1.7.5-2.5.2-.4.4-.8.8-1.1.3-.2.9-.4 1 .1 0 .3 0 .6-.1 1 0 .2-.1.5-.1.7-.3 1.6-.8 3.7-1 5.4-.1.8-.1 2-.2 2.7 0 .1-.1 1.8-.1 2.7 0 1.1.2 2.3.5 3.3.2.8.7 1.5 1.2 2.1.4.3.9.4 1.3.2.5-.2.8-.8 1.1-1.3.4-.8.6-1.6.9-2.4l.6-1.8h.2c0 .2.1.2.1.3zm-7.6-.2c-.2-.1-.5-.1-.7.2-.3.4-.3.9-.4 1.4-.1.8-.2 1.7-.1 2.6.1.2.4.7.6.3.2-.4.4-.8.5-1.2.2-.7.3-1.4.5-2.1.1-.1.1-.2.1-.4.2-.4-.2-.7-.5-.8zm1.8-6.8c0-.1.1-.2.1-.2l.8-4.4c.1-.4-.1-.3-.3-.1l-.2.6c-.1.4-.2.8-.2 1.2-.1.8-.2 1.6-.2 2.4-.1.1 0 .4 0 .5zm-66.2 21.5v22.2h-4.5V53.9L97 63.6l-7-9.7v12.3h-4.5V43.9h2.2l9.2 12.7 9.2-12.7h2.3zm19.3 17.8h-9.9l-2 4.5H111L121.6 44h2.2l10.6 22.2h-4.8l-1.9-4.5zm-8.3-3.8h6.7l-3.4-7.3-3.3 7.3zm27.3 2.5h-5v5.7h-4.5V43.9h9.8c6.5 0 8.7 3.8 8.7 8 0 3.8-1.6 6.3-4.5 7.6l5.2 6.6H151l-4.3-5.7zm-5-3.7h4c3.6 0 5.3-1.8 5.3-4.4 0-2.3-1.2-4.4-4.7-4.4h-4.6v8.8zm32 5h-9.9l-2 4.5H157L167.6 44h2.2l10.6 22.2h-4.8l-1.9-4.5zm-8.3-3.8h6.7l-3.4-7.3-3.3 7.3zM49.6 63.5c.2.1 0 .5-.1.6-.4.7-.9 1.1-1.6 1.2-.4 0-.9-.2-1.3-.4.3 1 .2 2-.1 3-.2.6-.4 1.1-.9 1.4-.4.3-1 .4-1.5.2-.6-.2-.8-.8-1.2-1.4-.1-.1-.2-.4-.3-.1-.1.5-.3.9-.6 1.3s-.8.6-1.3.4c-.2-.1-.4-.2-.5-.4-.4-.4-.5-.8-.6-1.4-.2-.7-.2-1.5-.1-2.3.1-.6.1-1.3.2-1.9.1-.2.1-.4.2-.5.2-.2.4-.2.6 0 .2.1.3.3.3.5.1.2 0 .4 0 .6-.1 1-.3 1.9-.3 2.9.1.5.1 1 .3 1.5.1.2.2.3.4.4.2.1.4-.1.6-.3.4-.6.5-1.3.5-1.9 0-.3 0-.5.1-.7.1-.2.3-.4.5-.3.2 0 .4.2.5.4.2.9.4 1.9 1.2 2.6.5.4.8.3 1.1 0 .3-.3.5-.8.6-1.2.2-.8.2-1.7 0-2.6 0-.2-.1-.4-.2-.5-.2-.3-.6-.4-.8-.6-.2-.1-.5-.3-.6-.5-.1-.2-.1-.5 0-.8.2-.2.5-.2.7-.2.3.1.4.2.6.4.2.2.4.5.5.8.1.1.1.3.2.4.1.1.2.2.4.3.3.2.6.4.9.5.7.1 1.2-.7 1.6-1.2-.2-.2-.2-.3 0-.2zm-3.7.1c-.2-.3-.3-.6-.7-.7H45s-.1.2 0 .2c.2.2.3.4.6.5h.3zm3-47c.1-.2.2-.1.3 0 .1.2-.1.6-.2.7-.7 1.4-1.9 2.3-2.1 2.6-.4.4-.8.5-1.4.5-.6 0-1-.4-1.3-.9-.1-.1-.1-.2-.2-.1 0 0-.1 0-.1.1-.5 1-.8 1.4-1.7 1.5-1.4.2-2.2-.8-2.3-2.6 0-.6-.2-3 .9-2.7.2.1.4.3.4.5.1.2.1.4 0 .6-.1 1.4-.3 1.2-.1 2.6.1.7.4 1 .9.9.6 0 1.5-1.1 1.7-2.8.1-.3 0-.6.2-.8.1-.2.3-.3.5-.3s.4.1.5.3c.1.2.1.4.1.6 0 .7-.1 1.5.2 2.1.1.2.5.6 1.1.2.8-.7 1-.9 1.4-1.3.5-.3.9-.7 1.2-1.7zM30 66.1H19.5V16.3H30v.8h-9.7v48.2H30zm39.4 0H58.9v-.8h9.7V17.1h-9.7v-.8h10.5zM53.8 32.2v18.2h-3.7V40.3l-5.6 7.9-5.6-7.9v10.1h-3.7V32.2H37l7.5 10.4L52 32.2h1.8zM37.2 26.5h14.5v.8H37.2zM37.2 55.1h14.5v.8H37.2z"/></svg>