<svg id="Layer_1" xmlns="http://www.w3.org/2000/svg" width="200" height="80"><style>.st0{fill:#fff}</style><path class="st0" d="M58.1 71.7c-16 0-29.1-13.1-29.1-29.1s13.1-29.1 29.1-29.1 29.1 13.1 29.1 29.1c0 16.1-13 29.1-29.1 29.1zm0-57.4c-15.6 0-28.3 12.7-28.3 28.3 0 15.6 12.7 28.3 28.3 28.3 15.6 0 28.3-12.7 28.3-28.3 0-15.6-12.7-28.3-28.3-28.3z"/><path class="st0" d="M63.3 71.7c-16 0-29.1-13.1-29.1-29.1s13.1-29.1 29.1-29.1 29.1 13.1 29.1 29.1c0 16.1-13 29.1-29.1 29.1zm0-57.4C47.7 14.3 35 27 35 42.6c0 15.6 12.7 28.3 28.3 28.3 15.6 0 28.3-12.7 28.3-28.3C91.7 27 79 14.3 63.3 14.3z"/><path class="st0" d="M58.1 66.5c-16 0-29.1-13.1-29.1-29.1S42.1 8.3 58.1 8.3s29.1 13.1 29.1 29.1-13 29.1-29.1 29.1zm0-57.4c-15.6 0-28.3 12.7-28.3 28.3s12.7 28.3 28.3 28.3c15.6 0 28.3-12.7 28.3-28.3S73.7 9.1 58.1 9.1z"/><path class="st0" d="M63.3 66.5c-16 0-29.1-13.1-29.1-29.1S47.3 8.3 63.3 8.3s29.1 13.1 29.1 29.1-13 29.1-29.1 29.1zm0-57.4C47.7 9.1 35 21.8 35 37.4s12.7 28.3 28.3 28.3C79 65.7 91.7 53 91.7 37.4S79 9.1 63.3 9.1zm45.9 26.1c.1 0 .1.1 0 0l.1 16.3h-1.1V39.4l-1.6 7.1s0 .1-.1.1h-.9s-.1 0-.1-.1l-1.6-7.1v12.1h-1.1V35.3s0-.1.1-.1h.9c.1 0 .1 0 .2.1l2.1 9.3 2.1-9.3c0-.1.1-.1.2-.1h.8zm5.8 12.6l-2.5-.1s-.1 0-.1.1l-.6 3.7h-1.1l2.4-16.2s0-.1.1-.1h1s.1 0 .1.1l2.4 16.2h-1.1l-.6-3.7zm-.2-1.1c.1 0 .1-.1 0 0l-1.1-8-1.2 8s0 .1.1.1h2.2zm8.1-11.5c.8 0 1.1.4 1.1 1.1v2h-1.1v-1.5c0-.3-.2-.5-.5-.5h-2.7c-.3 0-.5.2-.5.5V50c0 .3.2.5.5.5h2.7c.3 0 .5-.2.5-.5v-5.2s0-.1-.1-.1h-2v-1.1h3c.1 0 .2.1.2.2v6.6c0 .7-.4 1.1-1.1 1.1h-3.6c-.8 0-1.1-.4-1.1-1.1v-14c0-.7.4-1.1 1.1-1.1h3.6zm3.8 1.1c-.1 0-.1.1 0 0l-.1 7.2s0 .1.1.1h3.4v1.1h-3.4s-.1 0-.1.1v5.6s0 .1.1.1h4v1.1h-5.2V35.2h5.2v1.1h-4zm10.7 15.2l-1 .1c-.1 0-.2 0-.2-.1l-2.9-11.6-.1 11.7h-1.1l.1-16.2s0-.1.1-.1h.9c.1 0 .2 0 .2.1l2.9 11.5.1-11.6h1.1l-.1 16.2zm11.5-16.3c.8 0 1.3.4 1.3 1.5v6.8c0 .8-.3 1.2-1.1 1.2h-3.6s-.1 0-.1.1v6.8h-1.1V35.2h4.6zm.2 1.6c0-.4-.2-.5-.5-.5h-3.1s-.1 0-.1.1v7.1s0 .1.1.1h3.1c.4 0 .5-.2.5-.5v-6.3zm6.8 11l-2.5-.1s-.1 0-.1.1l-.6 3.7h-1.1l2.4-16.2s0-.1.1-.1h1s.1 0 .1.1l2.4 16.2h-1.1l-.6-3.7zm-.1-1.1s0-.1 0 0l-1.1-8-1.2 8s0 .1.1.1h2.2zm5.2-10.4c-.7 0-.8.3-.8.8v4.6c0 .8.4 1 1 1.4l1.3.8c1 .7 1.8 1 1.8 2.2v3.6c0 1.3-.7 1.8-1.7 1.8h-3.5v-1.1h3.4c.3 0 .7-.2.7-.7v-3.5c0-.6-.4-.8-.9-1.2l-1.4-.9c-1.2-.8-1.8-1-1.8-2.3V37c0-1 .6-1.6 1.9-1.6h3.4v1.1H161zm8.9 15.2v-6.8s0-.1-.1-.1h-2.9s-.1 0-.1.1v6.8h-1.1V35.2h1.1v8.3s0 .1.1.1h2.9s.1 0 .1-.1v-8.3h1.1v16.3h-1.1z"/><path class="st0" d="M61.4 28.7c.1 0 .1 0 0 0l.1 22.8h-1.1V32.9L58.1 43s0 .1-.1.1h-.9s-.1 0-.1-.1l-2.3-10.1v18.7h-1.1V28.8s0-.1.1-.1h.9c.1 0 .1 0 .2.1l2.8 12.4 2.7-12.4c0-.1.1-.1.2-.1h.9zm6.1 0c.8 0 1.3.4 1.3 1.5v10.7c0 .8-.3 1.2-1.1 1.2h-3.6s-.1 0-.1.1v9.4h-1V28.7h4.5zm.2 1.6c0-.4-.2-.5-.5-.5h-3.1s-.1 0-.1.1v11s0 .1.1.1h3.1c.4 0 .5-.2.5-.5V30.3z"/></svg>