<svg id="Layer_1" xmlns="http://www.w3.org/2000/svg" width="64" height="64" viewBox="0 0 64 64"><style>.law-w{fill:#0c2a60}.law1{fill:none;stroke:#0c2a60;stroke-width:2;stroke-linecap:round;stroke-linejoin:round;stroke-miterlimit:10}</style><g id="XMLID_29_"><g id="XMLID_63_"><path id="XMLID_67_" class="law-w" d="M16.1 13.6V8.7h1.4c.5 0 .9.1 1.2.3.3.2.4.6.4 1 0 .2-.1.4-.2.6-.1.2-.3.3-.5.4.3.1.5.2.6.4.1.2.2.4.2.7 0 .5-.1.8-.4 1.1-.3.2-.7.4-1.2.4h-1.5zm1-2.8h.5c.2 0 .4-.1.5-.2.1-.1.2-.3.2-.5s-.1-.4-.2-.5c-.1-.1-.3-.2-.5-.2h-.5v1.4zm0 .6v1.4h.7c.2 0 .4-.1.5-.2.1-.1.2-.3.2-.5s0-.4-.1-.5c-.1-.1-.2-.2-.5-.2h-.8z"/><path id="XMLID_71_" class="law-w" d="M22.4 11.4h-1.5v1.4h1.8v.7H20V8.7h2.7v.7h-1.8v1.3h1.5v.7z"/><path id="XMLID_73_" class="law-w" d="M26.8 11.8c0 .2 0 .4-.1.6-.1.2-.1.4-.2.5l.6.7-.6.5-.6-.7c-.1.1-.3.1-.4.1H25c-.5 0-1-.2-1.3-.5-.3-.3-.5-.8-.5-1.4v-1.4c0-.6.2-1 .5-1.4.3-.3.8-.5 1.3-.5s1 .2 1.3.5c.3.3.5.8.5 1.4v1.6zm-.9-1.3c0-.4-.1-.6-.2-.8-.1-.2-.4-.3-.6-.3-.3 0-.5.1-.6.3-.1.2-.2.5-.2.8v1.4c0 .4.1.6.2.8.1.2.3.3.6.3s.5-.1.6-.3c.1-.2.2-.5.2-.8v-1.4z"/><path id="XMLID_76_" class="law-w" d="M31 8.7v3.2c0 .6-.2 1-.5 1.3-.3.3-.7.5-1.3.5-.5 0-.9-.2-1.2-.5-.3-.3-.5-.7-.5-1.3V8.7h.9v3.2c0 .3.1.6.2.8.1.2.3.3.6.3.2 0 .4-.1.6-.3.1-.2.2-.4.2-.8V8.7h1z"/><path id="XMLID_82_" class="law-w" d="M34.2 11.4h-1.5v1.4h1.8v.7h-2.8V8.7h2.7v.7h-1.8v1.3h1.5v.7z"/><path id="XMLID_84_" class="law-w" d="M37.3 12.3c0-.2 0-.4-.2-.5-.1-.1-.3-.2-.5-.3-.5-.2-.9-.4-1.1-.6-.3-.2-.4-.5-.4-.9s.1-.7.4-1 .7-.4 1.1-.4c.5 0 .9.1 1.2.4.3.3.4.6.4 1.1h-.9c0-.3-.1-.4-.2-.6-.1-.1-.3-.2-.5-.2s-.3.1-.4.2c-.1.2-.2.3-.2.5s.1.3.2.4c.1.1.3.2.6.4.5.2.8.4 1.1.6.2.2.4.6.4 1s-.1.8-.4 1c-.3.2-.7.4-1.1.4-.5 0-.9-.1-1.2-.4-.5-.4-.6-.8-.6-1.3h.9c0 .3.1.5.2.7.1.1.3.2.6.2.2 0 .4-.1.5-.2 0-.1.1-.3.1-.5z"/><path id="XMLID_86_" class="law-w" d="M41.8 9.4h-1.2v4.2h-1V9.4h-1.1v-.7h3.2v.7z"/></g><g id="XMLID_191_"><path id="XMLID_509_" class="law1" d="M53.8 58V43.3H15.4v18.5h38.4z"/><path id="XMLID_510_" class="law1" d="M50.2 46.6H18.5v12.3H50.2z"/><path id="XMLID_528_" class="law1" d="M24.3 41v-1.9h33v14.7h-.9"/><path id="XMLID_310_" class="law-w" d="M27.6 53.6c-.1-.2-.2-.4-.3-.5-.1-.1-.3-.3-.5-.4l-.6-.3c-.2-.1-.4-.1-.7-.2h-.2V50c.4.1.8.2 1 .5.3.3.3.6.3.8.1 0 .2.1.4.1s.4-.1.5-.1c0-.3-.1-.6-.2-.9-.1-.3-.3-.5-.6-.7-.2-.2-.5-.3-.9-.4-.2-.1-.4-.1-.6-.1v-1c0-.3-.2-.5-.5-.5s-.5.2-.5.5v1c-.2 0-.5.1-.7.1-.3.1-.6.2-.8.4-.2.2-.4.4-.5.6-.1.2-.2.5-.2.8 0 .3 0 .5.1.7.1.2.2.4.4.5.2.2.4.3.7.4l.9.3v2.6h-.2c-.2-.1-.5-.2-.7-.3-.2-.1-.3-.3-.5-.5-.1-.1-.1-.2-.1-.3 0-.1-.1-.3-.1-.4 0 0-.2-.3-.5-.2-.3 0-.4.2-.4.2 0 .4.1.7.2 1 .1.3.3.5.6.8.3.2.6.4 1 .5.2.1.4.1.7.1v.7c0 .3.2.5.5.5s.5-.2.5-.5v-.7c.3 0 .6-.1.8-.1.3-.1.6-.3.9-.4.2-.2.4-.4.6-.7.1-.3.2-.5.2-.9.2-.3.1-.6 0-.8zm-3.2-1.5c-.2-.1-.3-.1-.4-.1-.2-.1-.4-.1-.5-.2l-.3-.3c-.1-.1-.1-.2-.1-.4 0-.3.1-.6.4-.8.2-.1.5-.2.8-.3v2.1zm2.3 2.8c-.1.1-.2.3-.4.4-.2.1-.4.2-.6.2h-.4v-2.4c.1 0 .2 0 .3.1.3.1.5.2.7.3.2.1.3.2.4.4.1.1.1.3.1.5s0 .4-.1.5z"/><path id="XMLID_259_" class="law1" d="M31 51.5h15.2"/><path id="XMLID_263_" class="law1" d="M31 54.9h15.2"/></g><path id="XMLID_267_" class="law1" d="M11.7 61.5H7.3V1.8h43.2v34.7"/><path id="XMLID_255_" class="law1" d="M11.4 58.5h-1.3V4.7h37.6v31.8"/><path id="XMLID_270_" class="law1" d="M15.2 15.5h27.5"/><path id="XMLID_271_" class="law1" d="M13.7 21.5h16.5"/><path id="XMLID_274_" class="law1" d="M13.7 25.6h16.5"/><path id="XMLID_276_" class="law1" d="M13.7 29.8h16.5"/><path id="XMLID_336_" class="law1" d="M13.7 33.9h16.5"/></g></svg>