<svg id="Layer_1" xmlns="http://www.w3.org/2000/svg" width="64" height="64" viewBox="0 0 64 64"><style>.law0{fill:none;stroke:#0c2a60;stroke-width:2;stroke-linecap:round;stroke-linejoin:round;stroke-miterlimit:10}</style><g id="XMLID_383_"><g id="XMLID_387_"><path id="XMLID_395_" class="law0" d="M53.2 47.7c2.5.7 4.8 2.5 6.2 3.8 1 1 1.6 2.4 1.6 3.9v.9c0 1.1-.3 2.1-.9 3l-.2.3c-.3.5-.8.7-1.4.7h-20c-.7 0-1.4-.4-1.8-1l-.1-.1c-.6-.9-.9-1.9-.9-3v-.9c0-1.5.6-2.9 1.6-3.9 1.4-1.4 3.7-3.2 6.2-3.8l9.7.1z"/><path id="XMLID_392_" class="law0" d="M43.5 47.7v-4.8h9.8v4.8"/><path id="XMLID_391_" class="law0" d="M53.3 42.9l4.1-4.5"/><g id="XMLID_388_"><path id="XMLID_390_" class="law0" d="M43.8 38.8l-.2-.3c-.4-.4-1-1.1-1.8-1.8-1.8-1.7-2.5-1.8-3.8-2.9-2.5-2.1-3.6-4.8-4.1-6.1-.5-1.2-.8-2.3-1-3.1.9.2 1.8.5 2.6.7L34.1 23c-1.1-1.8-1.8-3.8-2.1-5.9-.4-3.4 0-4.9-.3-7-.2-1.6-.9-3.9-3.1-6.5 3.3 2.1 8.2 5.9 11.7 12.3 5.8 10.7 4 22.8 3.5 22.9z"/><path id="XMLID_389_" class="law0" d="M45.5 42.6L44 38.4l-2.2-6.2"/></g></g><g id="XMLID_381_"><path id="XMLID_382_" class="law0" d="M38.6 7.7h7.5c2.3 0 4.1 1.8 4.1 4.1v27.7"/><path id="XMLID_152_" class="law0" d="M14.4 14.5H3.1c-.1-.5-.3-2.7 1.2-4.6 1.4-1.8 3.8-2.6 6.2-2.3h17.9"/><path id="XMLID_386_" class="law0" d="M33.1 52.6h-6.4v2c0 3.1-2.4 5.7-5.4 5.8h-1c-2.8-.3-4.9-2.9-4.9-5.7V21.9c1-13.6-4.9-14.2-4.9-14.2"/><path id="XMLID_396_" class="law0" d="M54.1 60.4H21.2"/></g><path id="XMLID_385_" class="law0" d="M18.7 16.9h8.5"/><path id="XMLID_393_" class="law0" d="M18.7 23.5h9.7"/><path id="XMLID_394_" class="law0" d="M18.7 30.3h13.2"/><path id="XMLID_397_" class="law0" d="M18.7 38h18.6"/><path id="XMLID_398_" class="law0" d="M18.7 46.9h15.9"/></g></svg>