<svg id="Layer_1" xmlns="http://www.w3.org/2000/svg" width="64" height="64" viewBox="0 0 64 64"><style>.law0{fill:none;stroke:#0c2a60;stroke-width:2;stroke-linecap:round;stroke-linejoin:round;stroke-miterlimit:10}</style><g id="XMLID_123_"><path id="XMLID_133_" class="law0" d="M10 54.3v-2.4c0-1.4 1.2-2.6 2.6-2.6h23.7c1.4 0 2.6 1.2 2.6 2.6v2.4"/><path id="XMLID_136_" class="law0" d="M32.5 59.1H2.9v-2.3c0-1.4 1.7-2.5 3.8-2.5H42c2.1 0 3.8 1.1 3.8 2.5v2.3"/><path id="XMLID_139_" class="law0" d="M36.8 15.1l-16.6 7.4 1.9 4.1 16.6-7.3"/><path id="XMLID_134_" class="law0" d="M37 17.5c-.8-1.9 0-4.1 1.9-4.9l20.6-9.1c.2-.1.4 0 .5.2l2.6 5.9c.1.3 0 .6-.3.7l-20.4 9c-1.8.9-4 .1-4.9-1.8z"/><path id="XMLID_132_" transform="scale(-1) rotate(66.116 41.343 -24.26)" class="law0" d="M4.1 21h23.3v11.8H4.1z"/><path id="XMLID_135_" class="law0" d="M28.2 35.8l-.6-1.3-14.2 6.3.6 1.3c.7 1.6 2.6 2.4 4.3 1.7l8.3-3.7c1.6-.8 2.3-2.7 1.6-4.3z"/><path id="XMLID_137_" class="law0" d="M17.6 11.8l.6 1.3L4 19.4l-.6-1.3c-.7-1.6 0-3.6 1.7-4.3l8.3-3.7c1.5-.7 3.5 0 4.2 1.7z"/></g></svg>