<svg id="Layer_1" xmlns="http://www.w3.org/2000/svg" width="64" height="64" viewBox="0 0 64 64"><style>.law0{fill:none;stroke:#0c2a60;stroke-width:2;stroke-linecap:round;stroke-linejoin:round;stroke-miterlimit:10}</style><g id="XMLID_150_"><path id="XMLID_151_" class="law0" d="M23.8 61.8h23.8"/><g id="XMLID_109_"><path id="XMLID_147_" class="law0" d="M40.3 46.5c2.5.7 4.8 2.5 6.2 3.8 1.1 1 1.7 2.4 1.7 3.9v.9c0 1.1-.3 2.1-.9 3l-.3.5c-.3.4-.7.6-1.1.6H25.6c-.7 0-1.4-.4-1.8-1l-.1-.1c-.6-.9-.9-1.9-.9-3v-.9c0-1.5.6-2.9 1.7-3.9 1.4-1.4 3.7-3.2 6.2-3.8h9.6z"/><path id="XMLID_173_" class="law0" d="M39 52.1H23.2"/><path id="XMLID_154_" class="law0" d="M30.6 46.5v-4.8h9.8v4.8"/><path id="XMLID_155_" class="law0" d="M40.4 41.7l4.2-4.5"/><g id="XMLID_149_"><path id="XMLID_148_" class="law0" d="M30.9 37.5l-.2-.3c-.4-.4-1-1.1-1.8-1.8-1.9-1.7-2.5-1.8-3.8-2.9-2.5-2.1-3.6-4.8-4.1-6.1-.5-1.2-.8-2.4-1-3.2.9.2 1.8.5 2.6.7l-1.4-2.3c-1.1-1.8-1.8-3.8-2.1-5.9-.4-3.4 0-4.9-.3-7-.2-1.7-.9-3.9-3.1-6.6C19 4.2 24 8 27.4 14.5c5.9 10.8 4.1 23 3.5 23z"/><path id="XMLID_178_" class="law0" d="M32.6 41.4l-1.5-4.2-3.3-9.1"/></g></g></g></svg>