<svg id="Layer_1" xmlns="http://www.w3.org/2000/svg" width="64" height="64" viewBox="0 0 64 64"><style>.law0{fill:none;stroke:#0c2a60;stroke-width:2;stroke-linecap:round;stroke-linejoin:round;stroke-miterlimit:10}</style><g id="XMLID_213_"><path id="XMLID_253_" class="law0" d="M60.2 34.9v17.7c0 1.2-1 2.2-2.2 2.2h-7.8c-1.2 0-2.2-1-2.2-2.2V34.9c0-1.2 1-2.2 2.2-2.2H58c1.2 0 2.2 1 2.2 2.2z"/><path id="XMLID_294_" class="law0" d="M30.4 42.4c.6.6.8 1 1.1 1.4.3.5.3 1.1-.1 1.5-.9 1-2.4 2.4-3 3-.2.2-.4.3-.7.3-3.3.3-8.6-.7-11.6-.7h-.8-.1c-2.6.2-2.9 3.9-.3 4.5L26.3 55c1.2.3 2.4.4 3.6.4 1.6 0 3.3-.3 4.8-.8l7-2.3c.7-.3 3.4-.9 6.2-1.2"/><path id="XMLID_293_" class="law0" d="M39.5 36c2.8.6 5.7.9 8.5 1"/><path id="XMLID_297_" class="law0" d="M35.3 27.3L16.1 47.8"/><path id="XMLID_287_" class="law0" d="M13.3 51l-6 6.9L3.7 62l5.4-2.1 4-3.9"/><path id="XMLID_298_" class="law0" d="M11 50.2v-1.7l3.5-9.5c.3-.9 1-1.7 1.9-2.2l3-1.6"/><path id="XMLID_238_" class="law0" d="M19.7 43.9l.2-.4c.3-.8.7-2 1.1-3.5 1-3.6.7-4.5 1.3-6.8 1.1-4.6 3.9-7.8 5.2-9.3 1.3-1.5 2.5-2.6 3.5-3.3.3 1.3.5 2.6.8 3.9l2.1-3.3c1.6-2.6 3.8-4.9 6.3-6.6h.1c4.2-2.8 6.4-3.2 8.9-5 2-1.4 4.5-3.8 6.5-8.3-.5 5.6-2.2 14.6-8.4 23.2C37 39 20.2 44.6 19.7 43.9z"/><path id="XMLID_156_" class="law0" d="M55.5 37.3c0 1.2-1 2.2-2.2 2.2-1.2 0-2.2-1-2.2-2.2 0-1.2 1-2.2 2.2-2.2 1.2 0 2.2 1 2.2 2.2z"/></g></svg>