<svg id="Layer_1" xmlns="http://www.w3.org/2000/svg" width="64" height="64" viewBox="0 0 64 64"><style>.law0{fill:none;stroke:#0c2a60;stroke-width:2;stroke-linecap:round;stroke-linejoin:round;stroke-miterlimit:10}</style><g id="XMLID_61_"><g id="XMLID_295_"><g id="XMLID_248_"><path id="XMLID_55_" class="law0" d="M38.8 58.6c.6-.6.9-1.5.9-2.3v-2.9H2.3v2.9c0 .9.3 1.7.9 2.3h35.6z"/><path id="XMLID_243_" class="law0" d="M10.7 45.6H8.5l-6.2 3.8h37.4l-5.2-3.8h-4"/><g id="XMLID_246_"><path id="XMLID_249_" class="law0" d="M25.8 32.4c-.1-2.4-1.2-4.6-3.8-5.1-1.6-.3-3.3.1-4.5 1.2-2.1 1.9-1.4 5-.9 7.5.4 1.8 2.3 9.5 2.3 9.5h4.3s.8-3.4 1.2-5c.5-2.2 1.1-4.4 1.4-6.6v-1.5z"/><path id="XMLID_247_" class="law0" d="M16.1 45.6h9.6"/></g></g><path id="XMLID_251_" class="law0" d="M2.3 49.4v4"/></g><path id="XMLID_38_" class="law0" d="M39.7 49.4v4"/></g><g id="XMLID_239_"><path id="XMLID_59_" class="law0" d="M60.2 23.4V10.9c0-2.8-2.3-5.1-5.1-5.1H41c-2.8 0-5.1 2.3-5.1 5.1v12.5h1.6c1.2 0 2.2-1 2.2-2.2v-2.3h17v2.3c0 1.2 1 2.2 2.2 2.2h1.3z"/><path id="XMLID_60_" class="law0" d="M37.5 23.4V37h21.4V23.4"/><path id="XMLID_254_" class="law0" d="M58.9 35.6h.6l2.1 3.6H35.2l1.5-3.6h.8"/><path id="XMLID_62_" class="law0" d="M41 5.7v2.8c0 .6.4 1.2.9 1.5 1.3.7 3.4 1.5 6.2 1.6 2.8 0 5-.9 6.3-1.6.6-.3.9-.9.9-1.5V5.7"/><path id="XMLID_240_" class="law0" d="M56.7 21.5v10.3c0 .7-.3 1.3-.9 1.7-.4.3-.8.4-1.3.4H41.8c-.5 0-.9-.2-1.3-.4-.5-.4-.9-1-.9-1.7V21.5h5.8"/><path id="XMLID_58_" class="law0" d="M39.7 24h17"/><path id="XMLID_242_" class="law0" d="M58.4 10v8"/><path id="XMLID_245_" class="law0" d="M37.7 10.1V18"/></g></svg>