<svg id="Layer_1" xmlns="http://www.w3.org/2000/svg" width="64" height="64" viewBox="0 0 64 64"><style>.law0{fill:none;stroke:#0c2a60;stroke-width:2;stroke-linecap:round;stroke-linejoin:round;stroke-miterlimit:10}</style><g id="XMLID_226_"><path id="XMLID_235_" class="law0" d="M61.7 27.3L56 14.7c-.2-.4-.7-.6-1.1-.4l-5 2.2c-.4.2-.6.7-.4 1.1l5.7 12.6c.2.4.7.6 1.1.4l5-2.2c.4-.2.6-.7.4-1.1z"/><path id="XMLID_234_" class="law0" d="M15.2 17.6L10 15c-.4-.2-.9 0-1.2.4l-6.5 13c-.2.4 0 .9.4 1.2l5.1 2.6c.4.2.9 0 1.2-.4l6.5-13c.3-.5.1-1-.3-1.2z"/><path id="XMLID_233_" class="law0" d="M52.6 32.6L48.5 36c-2.3-6-15.6-11.7-15.6-11.7-2.5-.8-4.9 1.9-4.9 1.9-1.9 2-3.7 2.5-5.1 2.4-1.6-.1-2.3-2.1-1.2-3.3.5-.5 1-1 1.5-1.4 1.2-1 2.3-2.1 3.3-3.4l.7-.9c4.3-3.9 10.7-2.1 12.2-1.5.4.1.8.3 1.2.4l3.4 1c.3.1.6.1.9-.1l1.8-.8 5.9 14z"/><path id="XMLID_232_" class="law0" d="M27.4 19.4c-.2.1-.3.2-.5.2-2.1 1-4.5 1-6.7.3l-1.8-.6-6.8 14.2s4.8 3.1 6.1 4.2"/><path id="XMLID_231_" class="law0" d="M48.5 35.9c.8 1.3.7 2.9-.2 4-.8 1-2.1 1.5-3.4 1.3 0 .1.5 1.6-.6 2.8-.7.8-1.8 1.2-2.8 1 0 .2 0 1.4-1 2.2-.8.7-2 1-3.1.6-.1.2-.6 1.3-1.8 1.7-1.1.4-2.5-.2-3.2-.6"/><path id="XMLID_230_" class="law0" d="M28.5 49.1c.7.6 1.7.9 2.6.6 1.1-.3 2.6-1.7 2.3-2.9-.2-.8-1.1-1.3-2.1-1.5 0-.2.2-1-.3-1.9-.7-1.2-2.2-1.2-2.3-1.2 0-.3 0-1-.4-1.7-.8-1.3-2.3-1.4-2.4-1.4.6-2.9-3.6-2.9-5.6-2.7-.7.1-1.4.3-1.9.7-.9.7-1 1.5-.7 2.3.1.7 8.2 7.5 10.8 9.7z"/><path id="XMLID_229_" class="law0" d="M25.9 39.1c-1.3.4-2.9.8-4.7 1.1-1 .1-1.8.2-2.7.2"/><path id="XMLID_228_" class="law0" d="M21.8 43.4c.8 0 1.6-.1 2.5-.2 1.7-.2 3.1-.6 4.4-1"/><path id="XMLID_227_" class="law0" d="M31.3 45.3c-1.1.4-2.4.8-3.9 1.1-.6.1-1.2.2-1.7.3"/></g></svg>