<svg id="Layer_1" xmlns="http://www.w3.org/2000/svg" width="64" height="64" viewBox="0 0 64 64"><style>.law0{fill:none;stroke:#0c2a60;stroke-width:2;stroke-linecap:round;stroke-linejoin:round;stroke-miterlimit:10}</style><g id="XMLID_377_"><g id="XMLID_369_"><g id="XMLID_256_"><path id="XMLID_384_" class="law0" d="M9.5 39.1c-.7.8-1.4 1.6-2.2 2.4l-.6.7c.9.8 1.8 1.6 2.6 2.4l.7-.8c.8-.8 1.5-1.7 2.3-2.5"/><path id="XMLID_380_" class="law0" d="M17 36.5c3.8-4 7.7-8 11.6-11.9l.1-.1c4.5-4.5 8-8.9 10.8-12.9l-.3-.3-2.1-1.9-.3-.3-.1.1c-3.7 3-7.9 6.9-12 11.9l-.1.1c-4.1 5.1-8.3 10.1-12.6 15"/><path id="XMLID_373_" class="law0" d="M6.7 42.2c-.5.6-1 1.3-1.5 2.1C3.8 46.4 2.8 48.4 2 50c1.6-1 3.5-2.2 5.4-3.7.7-.6 1.4-1.1 2-1.7l-2.7-2.4z"/><path id="XMLID_372_" transform="rotate(-47.662 39.34996 9.068942)" class="law0" d="M37.7 7.7h3.4v2.8h-3.4z"/><path id="XMLID_225_" class="law0" d="M39.5 11.6c1.4 1.3 1.4 3.6-.1 5.2l-8.1 8.9"/><path id="XMLID_365_" class="law0" d="M15.7 32.1l2.9 2.7"/></g><path id="XMLID_376_" class="law0" d="M62 21.4v20.3c0 1.2-1 2.2-2.2 2.2h-9.2c-1.2 0-2.2-1-2.2-2.2V21.4c0-1.2 1-2.2 2.2-2.2h9.2c1.2.1 2.2 1 2.2 2.2z"/><path id="XMLID_375_" class="law0" d="M28.8 30c.6.7.9 1.1 1.3 1.6s.3 1.2-.1 1.7c-1 1.1-2.7 2.7-3.4 3.4-.2.2-.5.3-.8.3-3.6.3-9.5-.7-13-.8h-.9-.1c-2.9.2-3.2 4.3-.4 5l12.8 3c1.3.3 2.7.5 4 .5 1.8 0 3.6-.3 5.4-.8l7.8-2.5c.8-.3 3.8-1 7-1.4"/><path id="XMLID_374_" class="law0" d="M37.2 22.5c3.1.7 8.1 1.5 11.3 1.6"/><path id="XMLID_371_" class="law0" d="M7.2 38.8V37l3.9-10.5c.4-1 1.1-1.9 2.1-2.4l8.4-2.9"/><path id="XMLID_367_" class="law0" d="M56.7 24.4c0 1.4-1.1 2.5-2.5 2.5s-2.5-1.1-2.5-2.5 1.1-2.5 2.5-2.5 2.5 1.2 2.5 2.5z"/></g><path id="XMLID_378_" class="law0" d="M2.7 52.3h19.6"/><path id="XMLID_379_" class="law0" d="M2.7 57.1H40"/></g></svg>