<svg id="Layer_1" xmlns="http://www.w3.org/2000/svg" width="64" height="64" viewBox="0 0 64 64"><style>.law0{fill:none;stroke:#0c2a60;stroke-width:2;stroke-linecap:round;stroke-linejoin:round;stroke-miterlimit:10}.law-w{fill:#0c2a60}</style><g id="XMLID_28_"><g id="XMLID_66_"><path id="XMLID_474_" class="law0" d="M52.6 38.9l-3.9-8.6c-.1-.3-.4-.4-.7-.3l-3.4 1.5c-.3.1-.4.5-.3.7l3.9 8.6c.1.3.5.4.7.3l3.4-1.5c.3 0 .4-.4.3-.7z"/><path id="XMLID_471_" class="law0" d="M20.7 32.3l-3.5-1.8c-.3-.1-.7 0-.8.3l-4.5 8.9c-.1.3 0 .7.3.8l3.5 1.8c.3.1.7 0 .8-.3l4.5-8.9c.1-.3 0-.7-.3-.8z"/><path id="XMLID_468_" class="law0" d="M46.4 42.6l-2.8 2.3c-1.6-4.1-10.7-8-10.7-8-1.7-.5-3.4 1.3-3.4 1.3-1.3 1.4-2.5 1.7-3.5 1.6-1.1-.1-1.6-1.5-.8-2.3.3-.3.7-.7 1.1-.9.8-.7 1.6-1.5 2.3-2.3l.5-.6c3-2.7 7.3-1.4 8.3-1.1.3.1.6.2.8.3l2.3.7c.2.1.4 0 .6 0l1.2-.5 4.1 9.5z"/><path id="XMLID_467_" class="law0" d="M29.1 33.5c-.1.1-.2.1-.3.2-1.4.7-3.1.7-4.6.2l-1.2-.5-4.7 9.7s3.3 2.1 4.2 2.9"/><path id="XMLID_466_" class="law0" d="M43.5 44.9c.5.9.5 2-.2 2.8-.5.7-1.4 1-2.3.9 0 .1.3 1.1-.4 1.9-.5.6-1.2.8-1.9.7 0 .1 0 .9-.7 1.5-.6.5-1.4.7-2.1.4-.1.1-.4.9-1.2 1.2-.8.3-1.7-.1-2.2-.4"/><path id="XMLID_465_" class="law0" d="M29.9 53.9c.5.4 1.2.6 1.8.4.8-.2 1.8-1.1 1.6-2-.1-.5-.7-.9-1.5-1 0-.1.1-.7-.2-1.3-.6-.8-1.6-.8-1.6-.8 0-.2 0-.7-.3-1.2-.5-.9-1.6-1-1.7-1 .4-2-2.5-2-3.8-1.9-.5 0-.9.2-1.3.5-.6.5-.7 1-.5 1.6.1.5 5.7 5.2 7.5 6.7z"/><path id="XMLID_464_" class="law0" d="M28 47.1c-.9.3-2 .6-3.2.7-.7.1-1.3.1-1.8.1"/><path id="XMLID_463_" class="law0" d="M25.3 50c.5 0 1.1 0 1.7-.1 1.1-.1 2.2-.4 3-.7"/><path id="XMLID_462_" class="law0" d="M31.8 51.3c-.8.3-1.7.6-2.7.7-.4.1-.8.1-1.2.2"/></g><path id="XMLID_329_" class="law0" d="M13.6 30.5v-26H52.3V32"/><path id="XMLID_332_" class="law0" d="M52.3 43.6v14.7H13.6V45.1"/><path id="XMLID_331_" class="law0" d="M44.3 1.5h10.9v60H9.9v-60h10.2z"/><g id="XMLID_455_"><path id="XMLID_648_" class="law-w" d="M20.1 11.9l.7 2.3h.8l.8-2.3v2.3h1.1V8.9h-1.3l-1 3.4-1-3.4h-1.3v5.3h1.2z"/><path id="XMLID_651_" class="law-w" d="M27.7 14.2l-1.6-5.3h-1l-1.6 5.3h1.2L25 13h1.1l.3 1.2h1.3zM25.9 12h-.5l.3-.9.2.9z"/><path id="XMLID_654_" class="law-w" d="M28.9 12.1h.6c.1 0 .3 0 .3.1.1.1.1.3.1.5v.9c0 .2.1.4.2.5l.1.1h1v-.4l-.1-.1s-.1-.1-.1-.2v-.8c0-.3-.1-.6-.2-.8l-.3-.3c.1-.1.2-.2.2-.3.1-.2.2-.5.2-.8 0-.5-.2-.9-.5-1.2-.3-.3-.7-.4-1.2-.4h-1.7v5.3h1.1v-2.1zm0-1V9.9h.5c.2 0 .3 0 .4.1.1.1.1.3.1.5s0 .4-.1.5c-.1.1-.2.1-.4.1h-.5z"/><path id="XMLID_657_" class="law-w" d="M32.7 12.1h.6c.1 0 .3 0 .3.1.1.1.1.3.1.5v.9c0 .2.1.4.2.5l.1.1h1v-.5s-.1-.1-.1-.2v-.8c0-.3-.1-.6-.2-.8l-.3-.3c.1-.1.2-.2.2-.3.1-.2.2-.5.2-.8 0-.5-.2-.9-.5-1.2-.3-.3-.7-.4-1.2-.4h-1.7v5.3h1.1v-2.1zm0-1V9.9h.5c.2 0 .3 0 .4.1.1.1.1.3.1.5s0 .4-.1.5c-.1.1-.2.1-.4.1h-.5z"/><path id="XMLID_658_" class="law-w" d="M35.4 8.9h1.1v5.3h-1.1z"/><path id="XMLID_661_" class="law-w" d="M38.2 13h1.1l.3 1.2h1.2l-1.6-5.3h-1l-1.6 5.3h1.2l.4-1.2zm.3-1l.3-.9.2.9h-.5z"/><path id="XMLID_662_" class="law-w" d="M42.6 14.3c.4 0 .8-.1 1.1-.2.3-.2.5-.4.6-.6v-2.2h-2v1h.9v.8s-.1.1-.2.1c-.1.1-.3.1-.4.1-.2 0-.4-.1-.6-.2-.1-.2-.2-.4-.2-.8v-1.4c0-.3.1-.6.2-.8.1-.2.3-.2.5-.2s.4.1.5.2c.1.1.2.3.2.5v.2h1.1l.1-.2v-.1c0-.5-.1-.9-.5-1.2-.3-.3-.7-.4-1.3-.4-.6 0-1 .2-1.4.5-.3.4-.5.8-.5 1.5v1.4c0 .6.2 1.1.5 1.5.4.3.8.5 1.4.5z"/><path id="XMLID_663_" class="law-w" d="M47.9 13.2h-2v-1.3h1.7V11h-1.7V9.9h2v-1h-3.1v5.3h3.1z"/><path id="XMLID_664_" class="law-w" d="M21.8 18.8h.2l.1-.2v-.1c0-.6-.2-1-.5-1.3-.3-.3-.8-.4-1.3-.4-.6 0-1 .2-1.3.6-.3.4-.5.9-.5 1.5v1.3c0 .6.2 1.1.5 1.5.3.4.8.6 1.4.6.5 0 1-.2 1.3-.5.3-.3.5-.7.5-1.3l-.1-.3H21v.2c0 .3-.1.5-.2.6-.1.1-.3.2-.5.2s-.4-.1-.5-.2c-.1-.2-.2-.5-.2-.8v-1.4c0-.4.1-.6.2-.8.1-.2.3-.2.5-.2s.4.1.5.2c.1.1.2.3.2.6v.2h.8z"/><path id="XMLID_667_" class="law-w" d="M24.1 16.8c-.6 0-1 .2-1.4.6-.3.4-.5.9-.5 1.5v1.3c0 .6.2 1.1.5 1.5.3.4.8.6 1.4.6.6 0 1.1-.2 1.4-.6.4-.4.5-.9.5-1.5v-1.3c0-.6-.2-1.1-.5-1.5-.4-.4-.9-.6-1.4-.6zm.8 2.1v1.3c0 .4-.1.6-.2.8-.1.2-.3.2-.6.2s-.4-.1-.6-.2c-.1-.2-.2-.5-.2-.8v-1.3c0-.4.1-.6.2-.8.1-.2.3-.2.6-.2s.5.1.6.2c.1.2.2.4.2.8z"/><path id="XMLID_668_" class="law-w" d="M28.9 19.8l-1.5-2.9h-1.1v5.3h1.2v-2.9l1.5 2.9h1.1v-5.3h-1.2z"/><path id="XMLID_669_" class="law-w" d="M30.1 17.9h1.2v4.3h1.2v-4.3h1.3v-1h-3.7z"/><path id="XMLID_672_" class="law-w" d="M38.8 16.9l-1.5 4.8s-.1-.1-.1-.2v-.8c0-.3-.1-.6-.2-.8l-.3-.3c.1-.1.2-.2.2-.3.1-.2.2-.5.2-.8 0-.5-.2-.9-.5-1.2-.3-.3-.7-.4-1.2-.4h-1.7v5.3H35v-2.1h.6c.1 0 .3 0 .3.1.1.1.1.3.1.5v.9c0 .2.1.4.2.5l.1.1h2l.3-1.2h1.1l.3 1.2h1.2l-1.6-5.3h-.8zm-3.8 1h.5c.2 0 .3 0 .4.1.1.1.1.3.1.5s0 .4-.1.5c-.1.1-.2.1-.4.1H35v-1.2zm4.6 2.1h-.5l.3-.9.2.9z"/><path id="XMLID_674_" class="law-w" d="M44.7 16.9v.8c-.1-.2-.2-.3-.3-.4-.3-.3-.8-.4-1.3-.4-.6 0-1 .2-1.3.6-.3.4-.5.9-.5 1.5v1.3c0 .6.2 1.1.5 1.5.3.4.8.6 1.4.6.5 0 1-.2 1.3-.5.3-.3.5-.7.5-1.3l-.1-.3h-1.1v.2c0 .3-.1.5-.2.6-.1.1-.3.2-.5.2s-.4-.1-.5-.2c-.1-.2-.2-.5-.2-.8v-1.4c0-.4.1-.6.2-.8.1-.2.3-.2.5-.2s.4.1.5.2c.1.1.2.3.2.6v.2h1.1l.1-.2v-.1c0-.3 0-.5-.1-.7H46v4.3h1.1v-4.3h1.3v-1h-3.7z"/></g></g></svg>