<svg id="Layer_1" xmlns="http://www.w3.org/2000/svg" width="64" height="64" viewBox="0 0 64 64"><style>.law-w{fill:#0c2a60}.law1{fill:none;stroke:#0c2a60;stroke-width:2;stroke-linecap:round;stroke-linejoin:round;stroke-miterlimit:10}</style><g id="XMLID_30_"><g id="XMLID_108_"><path id="XMLID_125_" class="law-w" d="M10.3 17v-4.4h1.3c.5 0 .8.1 1.1.3.3.2.4.5.4.9 0 .2 0 .4-.1.6-.1.2-.2.3-.4.4.2.1.4.2.6.4.1.2.2.4.2.7 0 .4-.1.7-.4 1-.2.2-.6.3-1.1.3h-1.6zm.8-2.6h.5c.2 0 .3-.1.4-.2.1-.1.1-.2.1-.4s-.1-.4-.2-.5c-.1-.1-.3-.1-.5-.1H11v1.2zm0 .6v1.3h.6c.2 0 .3-.1.4-.2.1-.1.1-.3.1-.5s0-.4-.1-.5c0 0-.1-.1-.3-.1h-.7z"/><path id="XMLID_122_" class="law-w" d="M16 15h-1.4v1.3h1.6v.7h-2.5v-4.4h2.5v.7h-1.6v1.1H16v.6z"/><path id="XMLID_119_" class="law-w" d="M19.9 15.4c0 .2 0 .4-.1.6 0 .2-.1.3-.2.5l.5.6-.6.5-.5-.6c0-.1-.1 0-.3 0h-.4c-.5 0-.9-.1-1.2-.4-.3-.3-.4-.7-.4-1.2v-1.2c0-.5.1-.9.4-1.2.3-.3.7-.4 1.2-.4s.9.1 1.2.4c.3.3.4.7.4 1.2v1.2zm-.8-1.2c0-.3-.1-.6-.2-.7-.1-.2-.3-.2-.6-.2-.2 0-.4.1-.6.2-.1.2-.2.4-.2.7v1.2c0 .3.1.6.2.7.1.2.3.2.6.2.2 0 .4-.1.6-.2.1-.2.2-.4.2-.7v-1.2z"/><path id="XMLID_117_" class="law-w" d="M23.7 12.6v2.9c0 .5-.1.9-.4 1.2-.3.3-.7.4-1.1.4-.5 0-.8-.1-1.1-.4-.3-.3-.4-.7-.4-1.2v-2.9h.9v2.9c0 .3.1.5.2.7.1.2.3.2.5.2s.4-.1.5-.2c.1-.2.2-.4.2-.7v-2.9h.7z"/><path id="XMLID_115_" class="law-w" d="M26.6 15h-1.4v1.3h1.6v.7h-2.5v-4.4h2.5v.7h-1.6v1.1h1.4v.6z"/><path id="XMLID_113_" class="law-w" d="M29.3 15.8c0-.2 0-.3-.1-.4-.1-.1-.3-.2-.5-.3-.5-.2-.8-.3-1-.5-.2-.2-.3-.5-.3-.9s.1-.7.4-.9c.3-.2.6-.3 1-.3s.8.1 1 .4c.3.2.4.6.4 1h-.8c0-.2-.1-.4-.2-.5-.1-.1-.2-.2-.4-.2s-.3.1-.4.2c-.1.1-.1.2-.1.4s.1.3.2.4c.1.1.3.2.5.3.4.1.8.3 1 .5.2.2.3.5.3.9s-.1.7-.4.9c-.3.2-.6.3-1 .3s-.8-.1-1.1-.4c-.3-.2-.4-.6-.4-1.1h.8c0 .3.1.5.2.6.1.1.3.2.5.2s.3-.1.4-.2v-.4z"/><path id="XMLID_111_" class="law-w" d="M33.4 13.2h-1V17h-.9v-3.8h-1v-.7h2.9v.7z"/></g><g id="XMLID_129_"><g id="XMLID_142_"><path id="XMLID_146_" class="law1" d="M46.6 45.4H59c1.3 0 2.4 1 2.5 2.3v.3c-.1 1.3-1.2 2.3-2.5 2.3H46.6v-4.9z"/><path id="XMLID_145_" class="law1" d="M43.4 46.3v3.2z"/><path id="XMLID_144_" class="law1" d="M41 47.9c0 4.9-4 8.9-8.9 9-4.8 0-8.7-3.7-8.9-8.4V48v-.3c.2-4.8 4.1-8.6 8.9-8.6C37 39 41 43 41 47.9z"/><path id="XMLID_143_" class="law1" d="M41 47.9c0 4.9-4 8.9-8.9 9-4.8 0-8.7-3.7-8.9-8.4V48v-.3c.2-4.8 4.1-8.6 8.9-8.6C37 39 41 43 41 47.9z"/></g><path id="XMLID_138_" class="law1" d="M41.3 41.7c-.7-1.1-1.7-2-2.7-2.8-.7-.5-1.5-.9-2.3-1.3-1.3-.5-2.7-.8-4.2-.8s-3 .3-4.3.9c-1.9.8-3.5 2.1-4.7 3.7-1.3 1.8-2.1 4.1-2.1 6.5 0 2.1.6 4 1.6 5.7.2.3.4.7.6 1 .5.7 1 1.2 1.7 1.8 1.9 1.7 4.5 2.7 7.2 2.7 3.2 0 6.1-1.4 8.1-3.6 1.8-2 3-4.6 3-7.6 0-2.3-.7-4.4-1.9-6.2zm-9.2 15.2c-4.8 0-8.7-3.7-8.9-8.4V48v-.3c.2-4.8 4.1-8.6 8.9-8.6 4.9 0 8.9 4 9 8.9-.1 4.8-4.1 8.9-9 8.9z"/><path id="XMLID_131_" class="law1" d="M41 47.9c0 4.9-4 8.9-8.9 9-4.8 0-8.7-3.7-8.9-8.4V48v-.3c.2-4.8 4.1-8.6 8.9-8.6C37 39 41 43 41 47.9z"/><path id="XMLID_130_" class="law1" d="M43.1 46.3h3.5v3.2h-3.5"/></g><path id="XMLID_343_" class="law1" d="M20.2 56.3H2.4V5h38.9v31.4"/><path id="XMLID_237_" class="law1" d="M18.4 53.6H5.2V7.7h33.3V34"/><g id="XMLID_288_"><path id="XMLID_289_" class="law-w" d="M31.6 53.6c-.3 0-.6-.1-.8-.3l-2.9-2.9c-.4-.4-.4-1.2 0-1.6.4-.4 1.2-.4 1.6 0l1.7 1.8 3.2-6.8c.3-.6.9-.8 1.5-.5.6.3.8.9.5 1.5L32.5 53c-.2.3-.5.6-.8.6h-.1z"/></g><path id="XMLID_236_" class="law1" d="M8.5 23.3h26.4"/><path id="XMLID_349_" class="law1" d="M8.5 27.8h26.4"/><path id="XMLID_355_" class="law1" d="M8.5 32.2h26.4"/><path id="XMLID_357_" class="law1" d="M8.5 36.7h15.9"/><path id="XMLID_359_" class="law1" d="M8.5 41h11.7"/><path id="XMLID_361_" class="law1" d="M8.5 45.4h9.8"/><path id="XMLID_363_" class="law1" d="M8.5 49.7h9.4"/></g></svg>