<svg id="Layer_1" xmlns="http://www.w3.org/2000/svg" width="64" height="64" viewBox="0 0 64 64"><style>.law0{fill:none;stroke:#0c2a60;stroke-width:2;stroke-linecap:round;stroke-linejoin:round;stroke-miterlimit:10}</style><g id="XMLID_27_"><g id="XMLID_341_"><path id="XMLID_330_" class="law0" d="M47.6 27.5l-1.3 1.4c-.7.8-2 .9-2.8.2l-11.1-9.8c-.8-.7-.9-2-.2-2.8l1.3-1.4"/><path id="XMLID_327_" class="law0" d="M5 59.4c.7-.8 1.9-.8 2.6-.2.8.7.8 1.9.2 2.6-.7.8-1.9.8-2.6.2-.8-.6-.9-1.8-.2-2.6z"/><path id="XMLID_337_" class="law0" d="M27.4 33.9c.7-.8 1.9-.8 2.6-.2.8.7.8 1.9.2 2.6-.7.8-1.9.8-2.6.2-.8-.6-.9-1.8-.2-2.6z"/><path id="XMLID_334_" class="law0" d="M14.4 51.5l13.1-14.9"/><g id="XMLID_339_"><path id="XMLID_43_" transform="rotate(-138.694 47.115 13.608)" class="law0" d="M35.9 7.7h22.4v11.8H35.9z"/><path id="XMLID_333_" class="law0" d="M34.9 10.7c-.2 0-1.2.2-2 1.1-.8.9-.8 1.9-.8 2.1 5.6 4.9 11.3 9.9 16.9 14.8.2 0 1.3-.2 2-1.2.7-.9.8-1.8.8-2-5.6-4.9-11.3-9.9-16.9-14.8z"/></g><path id="XMLID_353_" class="law0" d="M43.5 29.1C39.7 35.7 36 42.4 32.2 49c-4.5.7-10.7 2.3-17.2 6-2.7 1.5-5 3.2-7 4.8"/><path id="XMLID_351_" class="law0" d="M6.9 58.8c1.3-2.1 2.7-4.6 3.9-7.5 2.9-7 3.6-13.4 3.7-17.9l18.3-13.8"/></g><path id="XMLID_345_" class="law0" d="M12.1 62.5h41.2"/><path id="XMLID_347_" class="law0" d="M36.4 57.5h16.9"/></g></svg>