<svg id="Layer_1" xmlns="http://www.w3.org/2000/svg" width="64" height="64" viewBox="0 0 64 64"><style>.law0{fill:none;stroke:#0c2a60;stroke-width:2;stroke-linecap:round;stroke-linejoin:round;stroke-miterlimit:10}</style><g id="XMLID_32_"><path id="XMLID_164_" class="law0" d="M52.7 19.5v8.3c0 8.3-3.3 16.3-9.2 22.2L31.8 61.8 20.1 50.1c-5.3-5.3-8.5-12.3-9.1-19.7-.1-.8-.1-1.7-.1-2.5V11c0-1.7 1-3.3 2.5-4.1 3.9-2 10.4-4.4 18.7-4.3C40 2.7 46.3 5 50.1 7c1.5.8 2.5 2.3 2.5 4.1v8.4"/><path id="XMLID_163_" class="law0" d="M15.9 30.6c-.1-.7-.1-1.4-.1-2.1V13.9c0-1.9 1.3-3.7 3.1-4.2C21.4 9 24 8.3 27 7.8c2.4-.4 4.6-.7 6.7-.9"/><path id="XMLID_162_" class="law0" d="M47.9 22.4l-.6 7.1c-.6 7.1-4 13.6-9.4 18.2"/><g id="XMLID_157_"><g id="XMLID_160_"><path id="XMLID_161_" class="law0" d="M23.8 22.3v7c0 .6.1 1.2.2 1.7.3 1.3.9 2.5 1.7 3.5 1.2 1.4 3 2.3 4.9 2.3h2.2c3.8 0 6.8-3.4 6.8-7.5v-7H23.8z"/></g><path id="XMLID_159_" class="law0" d="M31.8 33.5c-.7 0-1.3-.6-1.3-1.4v-1.6c-.9-.4-1.6-1.3-1.6-2.3 0-1.4 1.3-2.5 2.8-2.5 1.6 0 2.8 1.1 2.8 2.5 0 1-.6 1.9-1.6 2.3v1.6c0 .4-.1.7-.4 1-.1.3-.4.4-.7.4z"/><path id="XMLID_158_" class="law0" d="M26.1 22.3c-.3-3.7 2.4-6.8 5.6-6.8s5.9 3.2 5.6 6.8"/></g></g></svg>