<svg id="Layer_1" xmlns="http://www.w3.org/2000/svg" width="64" height="64" viewBox="0 0 64 64"><style>.law0{fill:none;stroke:#0c2a60;stroke-width:2;stroke-linecap:round;stroke-linejoin:round;stroke-miterlimit:10}</style><g id="XMLID_171_"><path id="XMLID_299_" class="law0" d="M24.9 35.5v-3.8"/><path id="XMLID_283_" class="law0" d="M38.4 35.7v-3.8"/><path id="XMLID_196_" class="law0" d="M31.7 42.8l-7.4-7.9-1.2 2.8 2.4 11.7z"/><path id="XMLID_195_" class="law0" d="M31.7 42.8l7.4-7.9 1.3 2.8-2 11.7z"/><path id="XMLID_193_" class="law0" d="M28.4 46.5l1 2.2H34l1.2-2.2"/><path id="XMLID_192_" class="law0" d="M27.4 58.8l2-10.1H34l2 10.1"/><g id="XMLID_189_"><g id="XMLID_199_"><path id="XMLID_202_" class="law0" d="M28.2 22.9h-3.1c-1.1 0-2.1-.9-2.1-2.1 0-1.1.9-2.1 2.1-2.1h3.1c1.1 0 2.1.9 2.1 2.1 0 1.1-.9 2.1-2.1 2.1z"/><path id="XMLID_201_" class="law0" d="M38.4 22.9h-3.1c-1.1 0-2.1-.9-2.1-2.1 0-1.1.9-2.1 2.1-2.1h3.1c1.1 0 2.1.9 2.1 2.1-.1 1.1-1 2.1-2.1 2.1z"/><path id="XMLID_200_" class="law0" d="M30.3 20.5h3"/></g><g id="XMLID_282_"><path id="XMLID_300_" class="law0" d="M21.1 18.3c.4-.1 1.1-.2 1.7-.7 1.5-1.2.7-3.3 2-4.8 1.1-1.2 2.9-1.3 3.4-1.3 2.9-.1 3.5 2.3 7.8 4.4 2.4 1.2 6.5.3 6.5.3 2.9-7.7-1.3-13.6-1.3-13.6-.1 1.2-.5 1.5-1.3 1.6-1 .2-1.9.1-2.9-.1-1.4-.3-6.1-1.5-9.5-.7-.2 0-4.5 1-6.2 4.6-.9 1.8-.8 3.7-.7 5 0 2.1.5 2.6.5 5.3v3.3c-.1 2.7-.1 3.9.6 4.3.3.2.7.1 1 0 0 0 .5 7.1 7.1 9.1 1.1.4 2.3.4 3.5.2 3.9-.9 6.9-4.5 7.7-9.3.2 0 .6 0 .9-.2.7-.5.6-1.7.5-3.9v-3.7-2"/></g></g><path id="XMLID_165_" class="law0" d="M40.4 37.6c5.2.6 10.3 1.3 15.5 1.9l5.7 21.8H20.5l-18.1-5 4.7-16.7 16-1.9"/></g></svg>