<svg id="Layer_1" xmlns="http://www.w3.org/2000/svg" width="64" height="64" viewBox="0 0 64 64"><style>.law0{fill:none;stroke:#0c2a60;stroke-width:2;stroke-linecap:round;stroke-linejoin:round;stroke-miterlimit:10}</style><g id="XMLID_26_"><path id="XMLID_39_" class="law0" d="M5 46.8h-.6c-.2 0-.3-.1-.4-.2-.6-.3-1-1-1.1-1.7l-.6-5.3c-.1-.8 0-1.5.2-2.3l2.2-6.9c.3-1 .9-1.9 1.7-2.5l10.8-8.6c.8-.6 1.8-1 2.8-1l20.1-3"/><path id="XMLID_48_" class="law0" d="M12.4 31.8l1.6-1.3 5.7-2.3c2-.8 4.3-.2 5.7 1.4.4.5.8.9 1.1 1.4.8 1 .9 2.5.1 3.5-1.4 2-3.1 3.7-5 5.2-.4.3-.9.7-1.3 1.1-1.2 1.1-2.3 2.1-3.2 3.1-.2.2-.4.5-.5.8-.3.9-.2 1.9.3 2.6.1.1.1.2.2.2.9 1 2.4 1.2 3.5.5l10.2-7.2c1-.7 2-1.2 3.2-1.6l5-1.5c1.7-.5 3.2-1.5 4.3-2.8l4.7-5.4"/><path id="XMLID_47_" class="law0" d="M19 38.6c-.5-.6-1.1-1.1-1.8-1.4H9.5l-.3.1c-1.7.6-2.8 2.2-2.8 4v.2c0 .9.2 1.7.5 2.5l1.3 3.3"/><path id="XMLID_41_" class="law0" d="M9.5 37.2c0-1.9 1.5-3.4 3.4-3.4h.3c1.9 0 3.4 1.5 3.4 3.4"/><path id="XMLID_45_" class="law0" d="M21.8 49.9l1.5 1.2c.3.3.2.8-.2.9-2.7.5-6 .9-9.8.9-3.6 0-6.9-.4-9.5-.9-.4-.1-.6-.6-.2-.9l4.6-3.9"/><path id="XMLID_44_" class="law0" d="M8.2 47.2h4.2"/><path id="XMLID_46_" class="law0" d="M59.5 30.4l-4.3 2.4c-2.2 1.2-5 .4-6.3-1.8l-8.5-15.5c-1.1-1.9-.4-4.3 1.6-5.4l5.4-3c1.9-1.1 4.3-.4 5.4 1.6l8.5 15.5c1.2 2.2.4 5-1.8 6.2z"/><path id="XMLID_36_" class="law0" d="M46 16.2c-1.1 0-2-.9-2-2s.9-2 2-2 2 .9 2 2c-.1 1.1-.9 2-2 2z"/><path id="XMLID_325_" class="law0" d="M3.8 52v3.8c2.6.5 5.8 1 9.6 1s7.1-.4 9.7-1V52"/></g></svg>