<svg id="Layer_1" xmlns="http://www.w3.org/2000/svg" width="64" height="64" viewBox="0 0 64 64"><style>.law1{fill:none;stroke:#0c2a60;stroke-linecap:round;stroke-linejoin:round;stroke-miterlimit:10}</style><g id="XMLID_403_"><path id="XMLID_417_" class="law1" d="M4.3 39.8l8.5-5.2"/><path id="XMLID_418_" class="law1" d="M8.4 37.3l15.1 25.4"/><path id="XMLID_419_" class="law1" d="M6.2 32.3l-1.5-2.7"/><g id="XMLID_400_"><path id="XMLID_408_" class="law1" d="M55.8 13.4l-2 8h5.4l-2.8-8H45.7"/><g id="XMLID_415_"><path id="XMLID_402_" class="law1" d="M45.7 13.4l-2.7 8h5.4l-2.6-8"/></g></g><path id="XMLID_406_" class="law1" d="M43.2 23.9h4.7"/><path id="XMLID_410_" class="law1" d="M44.3 26.4h2.5"/><path id="XMLID_412_" class="law1" d="M55.2 26.4h2.5"/><path id="XMLID_409_" class="law1" d="M54.2 23.9h4.6"/><path id="XMLID_404_" class="law1" d="M51.6 13.3l-2.7-1.7c-.8-.5-1.8-.5-2.6-.1l-2.2 1.9-4.1 3-5.5-2.8c-1.3-.6-2.7-1-4.1-1.2l-2-.2c-.4 0-.7-.3-.8-.6l-.5-1.6"/><path id="XMLID_416_" class="law1" d="M24.7 10.3l-.4 1.6c-.1.4-.4.6-.8.7l-3.1.4c-.8.3-1.6.8-2 1.6l-9.5 16-3.7 2.3c-.5.3-.7 1.1-.3 1.6l1.2 1.6c.4.6 1.2.6 1.7.1l2.9-3.3 9.6-13.6c.6 1 1.4 2.6 1.5 4.7.1 1.8-.2 3.1-.4 3.7-1.4 5.4-1.9 11.9-2.2 17.3-.1 1.4-.2 3.5-.2 6.1"/><path id="XMLID_428_" class="law1" d="M30.7 25.8H22"/><path id="XMLID_411_" class="law1" d="M28.9 5.9c.8-1.5.5-3.1-.4-3.9-.4-.3-1.1-.6-1.8-.5-.7.1-.7.5-1.6.7-.9.2-1.1 0-1.6.3-.4.2-.9.7-1 1.3-.2.9.3 1.7.4 1.8h5.9v2.2c0 .8-.4 1.5-1 1.9l-.6.4c-.9.7-2.2.6-3-.2l-.5-.5c-.5-.4-.8-1.1-.8-1.7V5.5"/><path id="XMLID_420_" class="law1" d="M22.9 7.7s-.2 2.4-1.8 3.3"/><path id="XMLID_422_" class="law1" d="M28.7 7.8s.8 2.5 2.1 2.8"/><path id="XMLID_399_" class="law1" d="M23.8 58.4c.9.8 1.9 1.5 2.9 2 2.7 1.4 5.7 2.1 8.8 2.1h2.7c-.9-1.6-2-3.9-2.7-7-.9-6-1.8-11.9-2.8-17.9-.6-3.1-1.2-6-1.7-8.8-.2-1.2-.5-2.7-.3-4.8.1-.9.2-1.8.4-2.5l.3-1.5c.1-.4.1-.7.1-1.1l.2-1.5c.5-.2 1.8.5 2.1.5l6.8 2.3 1.3-1.2"/><path id="XMLID_427_" class="law1" d="M19.7 40.9c.6 3.6 3.2 14.9 14 17"/><path id="XMLID_424_" class="law1" d="M21.2 28.3c-.2 2.3-.3 6.7 1.8 11.6 2.8 6.6 7.7 10 9.6 11.2"/><path id="XMLID_414_" class="law1" d="M22.9 6.9h5.8"/><path id="XMLID_421_" class="law1" d="M24.7 25.8s-.8 6.5 4 11.6"/><path id="XMLID_407_" class="law1" d="M22.3 12.8c.4.6 1.1 1.5 1.5 2 2.2 2.2 4.9 3.6 8 2.7"/><path id="XMLID_426_" class="law1" d="M20.4 13s1.7 1.1-.2 6.3"/></g></svg>