<svg id="Layer_1" xmlns="http://www.w3.org/2000/svg" width="64" height="64" viewBox="0 0 64 64"><style>.law0{fill:none;stroke:#0c2a60;stroke-width:2;stroke-linecap:round;stroke-linejoin:round;stroke-miterlimit:10}</style><g id="XMLID_92_"><g id="XMLID_100_"><path id="XMLID_107_" class="law0" d="M58.8 25.4s-.8-.4-1.9-.1c-.9.2-3.6.9-5.1 3.4-.2.3-1.9 3.1-.5 6.2.8 1.7 3 3 4.9 2.5.2 0 .9-.3 1.5-.9 1.6-1.6 1.6-4.7-.4-6.7l-3.1-.3"/><path id="XMLID_106_" class="law0" d="M34.1 35.9c7.9 1.4 12.9 2.8 19.3 4.6.5.2 1.1.2 1.7 0 1.6-.4 4.7-1.5 6.3-4.7 1.4-2.9 1-6.4-.9-9.2-.8-1.1-2-1.6-3.3-1.6-6.2.4-11.3.7-20.3-.9"/><path id="XMLID_105_" class="law0" d="M22.2 34c-5.8-.8-9.9-1.1-15-1.4l.3-2"/><path id="XMLID_104_" class="law0" d="M33.2 32.1c8 1.5 14.7 3.5 21.4 5.2"/><path id="XMLID_103_" class="law0" d="M22.5 30.3c-6.3-.9-11.9-1.5-17.6-1.9-1.6-.1-2.9-1.3-3.1-2.9-.2-1.3-.1-2.9.7-4.5 1.2-2.6 3.9-4.4 6.9-4.7.7-.1 1.3.1 1.9.3 4.1 1.9 7.8 3.4 13.5 4.9"/><path id="XMLID_102_" class="law0" d="M24.9 34.7c-.3-1.5-.7-4.2.2-7.4.6-2.4 1.7-4.2 2.5-5.3.5-.2 1.8-.6 3.5-.3 1.6.3 2.7 1.1 3.1 1.5-.8.9-2.1 2.5-2.8 4.9-1.1 3.5-.3 6.6.1 7.7-1.2 0-2.7 0-4.3-.4-.9-.2-1.6-.5-2.3-.7z"/><path id="XMLID_101_" class="law0" d="M30.4 38.8l-1.2 8.9-1.9-4.6-3.2 4 1.3-9z"/></g><path id="XMLID_99_" class="law0" d="M2.5 21l12.2 2.3"/></g></svg>