<svg id="Layer_1" xmlns="http://www.w3.org/2000/svg" width="64" height="64" viewBox="0 0 64 64"><style>.law0{fill:none;stroke:#0c2a60;stroke-width:2;stroke-linecap:round;stroke-linejoin:round;stroke-miterlimit:10}</style><g id="XMLID_405_"><path id="XMLID_440_" class="law0" d="M55.7 59c-.2-.3-.3-.7-.4-1-.7-2.1 0-4.4 1.6-6 1.3-.2 2.6-2.4 2.9-4.1.7-4 1.1-8.8-1.3-12.4-2.7-4.1-8-5.9-12.7-5.6-.9.1-2.8.2-3.6 1.5-.3.4-.3.9-.3 1.2-4.1 2.2-4.3 6-4 8.1.1 1-.1 2.1-.7 3l-1.7 2.9c-.1.1-.1.2-.1.3 0 .3.2.6.6.6h1.6l-.6 1.8c-.2.7 0 1.4.7 1.7l-.4.8c-.3.2-.3.6 0 .9l.1.1c.4.5.5 1.1.3 1.7-.2.5-.3 1.1 0 1.5.5.7 2.4.9 4.4.8 1.2-.1 2.3.8 2.4 2 .1 1.6.4 3.6.4 3.6.8-.8 2.4-2.1 4.8-3 2.6-.8 4.9-.6 6-.4z"/><path id="XMLID_439_" class="law0" d="M8.3 30.6c.2-.3.3-.7.4-1 .7-2.1 0-4.4-1.6-6-1.3-.2-2.6-2.4-2.9-4.1-.7-4-1.1-8.8 1.3-12.4 2.7-4.1 8-5.9 12.7-5.6.9.1 2.8.2 3.6 1.5.3.4.3.9.3 1.2 4.1 2.2 4.3 6 4 8.1-.1 1 .1 2.1.7 3l1.7 2.9c.1.1.1.2.1.3 0 .3-.2.6-.6.6h-1.6l.6 1.8c.2.7 0 1.4-.7 1.7l.4.8c.2.3.1.7-.1.9l-.1.1c-.4.5-.5 1.1-.3 1.7.2.5.3 1.1 0 1.5-.5.7-2.4.9-4.4.8-1.2-.1-2.3.8-2.4 2C19.3 32 19 34 19 34c-.8-.8-2.4-2.1-4.8-3-2.5-.8-4.8-.6-5.9-.4z"/><g id="XMLID_436_"><path id="XMLID_438_" class="law0" d="M48.4 48.1h4.5v-2.3h-1.3v-4.5h1.3v-1.9h-4.5v1.9h1.3l-.1 4.5-1.2.1z"/><path id="XMLID_437_" class="law0" d="M52.2 35.7c0 .9-.7 1.6-1.6 1.6-.9 0-1.6-.7-1.6-1.6 0-.9.7-1.6 1.6-1.6.9 0 1.6.7 1.6 1.6z"/></g><g id="XMLID_432_"><path id="XMLID_435_" class="law0" d="M39.5 19.1v2.8l-5.6 2.8h17.4c3.1 0 5.6-2.5 5.6-5.6 0-3.1-2.5-5.6-5.6-5.6H45c-3 0-5.5 2.5-5.5 5.6z"/><path id="XMLID_434_" class="law0" d="M44.1 17.7H53"/><path id="XMLID_433_" class="law0" d="M44.1 21H53"/></g><path id="XMLID_431_" class="law0" d="M25.4 46.3v2.8l5.6 2.8H13.5c-3.1 0-5.6-2.5-5.6-5.6 0-3.1 2.5-5.6 5.6-5.6h6.3c3.1 0 5.6 2.5 5.6 5.6z"/><path id="XMLID_430_" class="law0" d="M20.8 45h-9"/><path id="XMLID_429_" class="law0" d="M20.8 48.2h-9"/><path id="XMLID_425_" class="law0" d="M15.7 15.6H13v-4.2h1.3c1 0 1.8-.8 1.8-1.8s-.8-1.8-1.8-1.8-1.8.8-1.8 1.8H9.8c0-2.5 2-4.5 4.5-4.5s4.5 2 4.5 4.5c0 2-1.3 3.7-3.2 4.3v1.7z"/><path id="XMLID_413_" class="law0" d="M15.7 18.7c0 .8-.6 1.4-1.4 1.4s-1.3-.6-1.3-1.4c0-.8.6-1.4 1.4-1.4s1.3.6 1.3 1.4z"/></g></svg>