<svg id="Layer_1" xmlns="http://www.w3.org/2000/svg" width="64" height="64" viewBox="0 0 64 64"><style>.law0{fill:none;stroke:#0c2a60;stroke-width:2;stroke-linecap:round;stroke-linejoin:round;stroke-miterlimit:10}</style><g id="XMLID_127_"><path id="XMLID_746_" class="law0" d="M53.2 2.3v49.6H42v-6.2c0-2 .4-4 1.2-5.8.8-2 1.9-5.4 2.8-10.5.2-1.1.6-2.2.9-3.2.3-1 .5-2 .9-3 .3-.7.7-1.6.4-2.3-.2-.4-.5-.6-.9-.6-1 0-1.5 1.6-1.9 2.4-.7 1.4-1.3 2.9-2.2 4.2-.3.5-.6.7-.9.6-.4-.1-.6-.5-.5-.9l1.1-11.5c.1-.9-.7-1.6-1.6-1.5-.7.1-1.2.7-1.2 1.4l-.8 9.8c0 .5-.6.9-1.1.8-.4-.1-.6-.5-.6-.8l-.8-11.9c-.1-1.1-1.1-1.8-2.2-1.6-.8.2-1.3 1-1.3 1.8l.7 11.6c0 .5-.4 1-1 1-.4 0-.7-.3-.8-.7-.5-1.5-2.4-6.7-3.2-9.1-.3-1-1.4-1.6-2.4-1.2-.8.3-.8.6-.6 1.5.1.6.3 1.2.4 1.8l2.9 10.5c.1.2.5 1.7-.3 3.1-.5.8-1.3 1.3-2.2 1.3-.5 0-.9-.1-1.4-.4-.4-.2-.7-.4-1-.6-.6-.4-1.5-1.1-2.9-1.4-.6-.1-1.8-.4-2.5.3-.3.3-.4.8-.4 1.1.9.5 2 1.3 3.2 2.3 2.1 1.9 3.4 4 4.1 5.5.8 1.3 1.7 2.3 2.7 3 .1 0 .1.1.2.1 1.7 1.1 2.9 3 2.9 5v4.5H16V2.4c.3 0 .6-.1 1-.1h36.2z"/><path id="XMLID_730_" class="law0" d="M16 2.4v49.5c-3.1 0-5.6 2.4-5.8 5.3V9.1c0-3.4 2.5-6.2 5.8-6.7z"/><path id="XMLID_128_" class="law0" d="M42 51.9h11.2v10.6H15.9c-3 0-5.5-2.3-5.7-5.3.2-3 2.8-5.3 5.8-5.3h15.6"/><path id="XMLID_737_" class="law0" d="M31.6 51.9"/><path id="XMLID_475_" class="law0" d="M53.2 55.6H42"/><path id="XMLID_478_" class="law0" d="M31.6 58.8h-9.3"/><path id="XMLID_460_" class="law0" d="M53.2 58.8H42"/><path id="XMLID_734_" class="law0" d="M16 2.4v-.1"/><path id="XMLID_735_" class="law0" d="M42 62.5V51.9"/><path id="XMLID_733_" class="law0" d="M31.6 51.9V62.5"/></g></svg>