<svg id="Layer_1" xmlns="http://www.w3.org/2000/svg" width="64" height="64" viewBox="0 0 64 64"><style>.law0{fill:none;stroke:#0c2a60;stroke-width:2;stroke-linecap:round;stroke-linejoin:round;stroke-miterlimit:10}.law-w{fill:#0c2a60}</style><path id="XMLID_451_" class="law0" d="M44.3 48.4h7V1.8H17.2c-.3 0-.6 0-.9.1v46.5"/><path id="XMLID_461_" class="law0" d="M16.3 1.9v46.5c-2.9 0-5.2 2.2-5.5 5V8.2c0-3.2 2.4-5.9 5.5-6.3z"/><path id="XMLID_452_" class="law0" d="M23.7 58.4h-7.4c-2.8 0-5.2-2.2-5.4-4.9.2-2.8 2.6-5 5.5-5h6.2"/><path id="XMLID_450_" class="law0" d="M44.3 48.4h7v10H44"/><path id="XMLID_454_" class="law0" d="M51.3 54.9h-7.1"/><g id="XMLID_401_"><path id="XMLID_443_" class="law-w" d="M25.5 15.3h3.1v1.2H24V8.3h1.6v7z"/><path id="XMLID_445_" class="law-w" d="M33.3 14.8h-2l-.5 1.8h-1.7l2.3-8.2H33l2.3 8.2h-1.7l-.3-1.8zm-1.8-1.3h1.4l-.7-2.6-.7 2.6z"/><path id="XMLID_448_" class="law-w" d="M41.2 13.5l.9-5.2h1.6l-1.6 8.2h-1.5l-1.2-5.1-1.2 5.1h-1.5l-1.6-8.2h1.6l.8 5.2 1.2-5.2H40l1.2 5.2z"/></g><path id="XMLID_442_" class="law0" d="M20 19.8h27.4"/><g id="XMLID_459_"><path id="XMLID_453_" class="law0" d="M41.1 55.7v6.1H26.9v-6.1h14.2z"/><path id="XMLID_190_" class="law0" d="M28.5 53.6v-1.3l-.9-1.3c-.1-.1-.1-.1-.1-.2-1-1.4-1.7-3-2-4.7l-.3-1.1c-.4-1.7-.8-3.5-1.4-5.1l-2-5.7s1-.6 2.2-.1c.6.2 1 .7 1.3 1.2l2.4 3.4v-8.1-2.7-.8c0-.7 0-2.9.7-3.4 1.6-1.1 3 .3 2.9 1.9 0 2.9-.1 5.8-.1 8.6 0 .2.1.4.3.4.1 0 .2 0 .3-.1.1-.1.2-.2.2-.3l.1-1.2c.1-.9.9-1.5 1.8-1.4.5.1.8.3 1.1.7.2.3.3.6.2 1l-.1 1.2c0 .2.1.3.3.3h.2c.2 0 .3-.1.3-.3 0-.5.3-1 .7-1.2.3-.2.7-.3 1.1-.2.4.1.8.3 1 .7.2.3.3.6.2 1l-.2 2c0 .2.1.4.3.4h.3c.1-.1.2-.2.2-.3l.1-.7c.1-.9.9-1.5 1.8-1.3.4.1.7.3.9.6.2.3.3.6.2 1L42 41l-.3 3.1c-.2 2-.8 4-1.8 5.8l-.9 2.3v1.4"/><circle id="XMLID_458_" class="law-w" cx="38.2" cy="58.8" r="1.1"/></g><path id="XMLID_457_" class="law0" d="M14.6 52.5h9.1"/><path id="XMLID_469_" class="law0" d="M18.3 55.5h2.8"/><path id="XMLID_470_" class="law0" d="M51.3 51.2h-3"/></svg>