<svg id="Layer_1" xmlns="http://www.w3.org/2000/svg" width="64" height="64" viewBox="0 0 64 64"><style>.law0{fill:none;stroke:#0c2a60;stroke-width:2;stroke-linecap:round;stroke-linejoin:round;stroke-miterlimit:10}</style><g id="XMLID_80_"><path id="XMLID_96_" class="law0" d="M30.2 45.5V15.4"/><path id="XMLID_95_" class="law0" d="M33.2 45.5V15.4"/><path id="XMLID_110_" class="law0" d="M13.8 54.5c.7-.9 6.8-8.9 17.5-9 11.2-.2 17.6 8.2 18.3 9H13.8z"/><path id="XMLID_94_" class="law0" d="M31.7 14.9c-2.6 0-4.6-2.1-4.6-4.6 0-2.6 2.1-4.6 4.6-4.6 2.6 0 4.6 2.1 4.6 4.6 0 2.6-2 4.6-4.6 4.6z"/><path id="XMLID_78_" class="law0" d="M34.2 10.3c0 1.3-1.1 2.4-2.4 2.4-1.3 0-2.4-1.1-2.4-2.4 0-1.3 1.1-2.4 2.4-2.4 1.3 0 2.4 1.1 2.4 2.4z"/><path id="XMLID_77_" class="law0" d="M17.8 32.9h2.6c0 2-1.7 3.7-3.7 3.7h-11c-2 0-3.7-1.7-3.7-3.7H17.8z"/><path id="XMLID_79_" class="law0" d="M53.1 54.2h4.2c0 2-1.6 3.6-3.6 3.6h-44c-2 0-3.6-1.6-3.6-3.6H9"/><path id="XMLID_98_" class="law0" d="M2.7 30.7l7.8-18.4 15.9-1.8"/><path id="XMLID_87_" class="law0" d="M10.5 12.3l9.4 18.4"/><path id="XMLID_89_" class="law0" d="M2.7 39.3h16.7"/><path id="XMLID_93_" class="law0" d="M45.7 32.9h-2.6c0 2 1.7 3.7 3.7 3.7h11c2 0 3.7-1.7 3.7-3.7H45.7z"/><path id="XMLID_97_" class="law0" d="M37 10.5l16 1.8 7.8 18.4"/><path id="XMLID_91_" class="law0" d="M53 12.3l-9.5 18.4"/><path id="XMLID_90_" fill="none" stroke="#0c2a60" stroke-linecap="round" stroke-linejoin="round" stroke-miterlimit="10" d="M60.8 39.3H44"/></g></svg>