<svg id="Layer_1" xmlns="http://www.w3.org/2000/svg" width="64" height="64" viewBox="0 0 64 64"><style>.law0{fill:none;stroke:#0c2a60;stroke-width:2;stroke-linecap:round;stroke-linejoin:round;stroke-miterlimit:10}.law-w{fill:#0c2a60}</style><g id="XMLID_33_"><g id="XMLID_214_"><g id="XMLID_220_"><path id="XMLID_224_" class="law0" d="M44 37.5l.9.8 5.4 4.8 4.2 3.7 6.1 5.5c1.7 1.5 2.1 4.2.6 6-.1.1-.2.3-.3.4v.1c-1.6 1.7-4.4 1.7-6.1.1l-6.1-5.4-4.1-3.7-5.5-4.8-1-.9 1-1.1 3.8-4.3 1.1-1.2z"/><path id="XMLID_223_" class="law0" d="M38.7 35l-3.8 4.3z"/><path id="XMLID_222_" class="law0" d="M33.6 34.3c-5.9 6.6-15.9 7.1-22.5 1.3C4.8 29.9 4 20.3 9.2 13.8c.2-.2.4-.5.6-.7.1-.2.3-.3.4-.4 5.9-6.1 15.6-6.5 22.1-.8 6.6 5.8 7.1 15.8 1.3 22.4z"/><path id="XMLID_221_" class="law0" d="M33.6 34.3c-5.9 6.6-15.9 7.1-22.5 1.3C4.8 29.9 4 20.3 9.2 13.8c.2-.2.4-.5.6-.7.1-.2.3-.3.4-.4 5.9-6.1 15.6-6.5 22.1-.8 6.6 5.8 7.1 15.8 1.3 22.4z"/></g><path id="XMLID_217_" class="law0" d="M41.3 26.4c.3-2.3.2-4.7-.3-7-.3-1.5-.9-3-1.6-4.4-1.1-2.2-2.6-4.3-4.6-6-2-1.8-4.3-3.1-6.7-3.9-3.4-1.2-7.1-1.4-10.6-.6-4 .8-7.7 2.9-10.6 6.1-2.5 2.8-4 6-4.6 9.4-.1.7-.2 1.4-.3 2-.1 1.4-.1 2.9.1 4.3.6 4.5 2.7 8.9 6.4 12.1 4.3 3.8 9.7 5.4 15 4.9 4.8-.4 9.4-2.6 12.9-6.5 2.8-3 4.4-6.7 4.9-10.4zm-30.2 9.2C4.8 29.9 4 20.3 9.2 13.8c.2-.2.4-.5.6-.7.1-.2.3-.3.4-.4 5.9-6.1 15.6-6.5 22.1-.8 6.6 5.9 7.1 15.9 1.3 22.5-5.9 6.5-15.9 7-22.5 1.2z"/><path id="XMLID_216_" class="law0" d="M33.6 34.3c-5.9 6.6-15.9 7.1-22.5 1.3C4.8 29.9 4 20.3 9.2 13.8c.2-.2.4-.5.6-.7.1-.2.3-.3.4-.4 5.9-6.1 15.6-6.5 22.1-.8 6.6 5.8 7.1 15.8 1.3 22.4z"/><path id="XMLID_215_" class="law0" d="M38.2 34.6l4.7 4.2-3.8 4.2-4.7-4.1"/></g><g id="XMLID_34_"><path id="XMLID_491_" class="law-w" d="M11.8 27.5h3.8V29H9.8V18.8h2v8.7z"/><path id="XMLID_488_" class="law-w" d="M21.5 26.8h-2.6l-.6 2.2h-2.1l2.9-10.3h2.1L24.1 29H22l-.5-2.2zm-2.2-1.5H21l-.8-3.3-.9 3.3z"/><path id="XMLID_37_" class="law-w" d="M31.4 25.3l1.1-6.5h2l-2 10.3h-1.8l-1.5-6.4-1.5 6.4h-1.8l-2-10.3h2l1 6.5 1.5-6.5H30l1.4 6.5z"/></g></g></svg>