<svg id="Layer_1" xmlns="http://www.w3.org/2000/svg" width="64" height="64" viewBox="0 0 64 64"><style>.law0{fill:none;stroke:#0c2a60;stroke-width:2;stroke-linecap:round;stroke-linejoin:round;stroke-miterlimit:10}</style><g id="XMLID_170_"><path id="XMLID_177_" class="law0" d="M26.2 35"/><path id="XMLID_176_" class="law0" d="M27.3 11.1s-1 5.9-7.2 8.7v.5c0 1.2.1 2.3.3 3.4v.1c.8 3.6 2.2 6.6 3.6 8.8.5.7 1.2 1.6 2.2 2.4.8.7 1.8 1.2 3 1.6.4.1.7.2 1 .3.2 0 .4.1.7.1h.7s.5-.1 1-.3c1-.4 2-1 2.8-1.7 1.5-1.2 2.4-2.5 2.4-2.5 2.4-3.2 3.1-6.6 3.6-8.7.2-1.1.3-2.3.3-3.5V20c-13-.2-14.4-8.9-14.4-8.9z"/><g id="XMLID_166_"><g id="XMLID_179_"><path id="XMLID_182_" class="law0" d="M29.4 21.3v2.2c0 .6-.5 1-1 1H23c-.6 0-1-.5-1-1v-2.2c0-.6.5-1 1-1h5.4c.5 0 1 .5 1 1z"/><path id="XMLID_181_" class="law0" d="M39.9 21.3v2.2c0 .6-.5 1-1 1h-5.4c-.6 0-1-.5-1-1v-2.2c0-.6.5-1 1-1h5.4c.5 0 1 .5 1 1z"/><path id="XMLID_180_" class="law0" d="M29.4 22.1h3.1"/></g><path id="XMLID_174_" class="law0" d="M39.9 23.5c0 .6-.5 1-1 1h-5.4c-.6 0-1-.5-1-1v-2.2c0-.6.5-1 1-1h5.4c.6 0 1 .5 1 1v2.2z"/></g><path id="XMLID_187_" class="law0" d="M43.3 39.6l-.4-.1-6.4-1.2c-1.7-.7-1.1-3.3-1.1-3.3 1.5-1.2 2.4-2.5 2.4-2.5 2.4-3.2 3.1-6.6 3.6-8.7.2-1.1.3-2.3.3-3.5V20h-2c-1.3-.1-2.5-.3-3.6-.6-.1 0-.2 0-.3-.1-.1 0-.3-.1-.4-.1-.2-.1-.5-.2-.7-.2-.1 0-.2-.1-.3-.1-.1 0-.2-.1-.3-.1-.1 0-.2-.1-.3-.1-.1 0-.2-.1-.3-.1-.4-.2-.8-.4-1.1-.6-.1-.1-.2-.1-.3-.2-.1-.1-.2-.1-.3-.2-.5-.3-.9-.7-1.3-1-.1-.1-.2-.2-.3-.2-1-1-1.7-2-2.2-2.8 0-.1-.1-.1-.1-.2s-.1-.1-.1-.2-.1-.1-.1-.2c-.1-.2-.1-.3-.2-.5 0-.1-.1-.2-.1-.3l-.3-.9s-1 5.9-7.2 8.7v.5c0 1.2.1 2.3.3 3.4v.1c.8 3.6 2.2 6.6 3.6 8.8.5.7 1.2 1.6 2.2 2.4 0 .1.7 2.6-1 3.3l-6.8 1.3c-4.2-.9-4.4-4.8-4.4-4.8.6.4 1.1.6 1.6.8 2 .6 3.9-1.4 3.3-3.4-1-3.2-1.8-7-2.2-11.3-.1-1.5-.2-2.9-.2-4.3C16.3 9 22.4 2.3 30.2 2h.4"/><path id="XMLID_185_" class="law0" d="M30.4 1.9c.1 0 .1 0 0 0h.3c7.8.3 13.9 7 13.9 14.8 0 1.4-.1 2.8-.2 4.3-.4 4.4-1.2 8.2-2.2 11.3-.6 2 1.3 4 3.3 3.4.5-.1 1-.4 1.6-.8 0 0-.2 3.6-4.3 4.5"/><path id="XMLID_169_" class="law0" d="M36.5 38.3l-5.3 16.6-5.9-16.6c1.7-.7 1-3.2 1-3.3.8.7 1.8 1.2 3 1.6.4.1.7.2 1 .3.2 0 .4.1.7.1h.7s.5-.1 1-.3c1-.4 2-1 2.8-1.7-.1-.1-.7 2.6 1 3.3z"/><path id="XMLID_168_" class="law0" d="M38.8 44.6l-2.4-.1 1 1.9-6.3 9.8-7-9.6 1-1.9-2.4.1-6-4.8 1.7-.3h-.1l6.8-1.3L31 55l5.3-16.6 6.8 1.3 2.3.4-6.6 4.5z"/><path id="XMLID_167_" class="law0" d="M25.2 38.4l-6.7 1.2"/><path id="XMLID_188_" class="law0" d="M45.5 40l3.6.7c2.3.4 4.1 2 4.9 4.2l6.6 17.2H24L3.4 56.3c1.5-3.8 2.9-7.6 4.3-11.4.8-2.2 2.7-3.7 4.9-4.2l4.2-.8 1.6-.3"/></g></svg>