<svg id="Layer_1" xmlns="http://www.w3.org/2000/svg" width="64" height="64" viewBox="0 0 64 64"><style>.law0{fill:none;stroke:#0c2a60;stroke-linecap:round;stroke-linejoin:round;stroke-miterlimit:10}.law-w{fill:#0c2a60}.law2{fill:none;stroke:#0c2a60;stroke-width:2;stroke-linecap:round;stroke-linejoin:round;stroke-miterlimit:10}</style><g id="XMLID_51_"><g id="XMLID_324_"><path id="XMLID_64_" class="law0" d="M43.6 1.8h10.9V61.6H9.3V1.8h10.2z"/><path id="XMLID_65_" class="law0" d="M12.5 5.1h38.7v53.2H12.5z"/></g><g id="XMLID_456_"><path id="XMLID_494_" class="law-w" d="M16.7 15.6h-.8v-4.4h.8v4.4z"/><path id="XMLID_496_" class="law-w" d="M20.5 15.6h-.8l-1.4-2.8v2.8h-.8v-4.4h.8l1.4 2.8v-2.8h.8v4.4z"/><path id="XMLID_498_" class="law-w" d="M24.3 15.6h-.8v-1.8H22v1.8h-.8v-4.4h.8v1.9h1.4v-1.9h.8v4.4z"/><path id="XMLID_500_" class="law-w" d="M27.1 13.6h-1.3v1.3h1.6v.7H25v-4.4h2.4v.7h-1.6V13h1.3v.6z"/><path id="XMLID_502_" class="law-w" d="M28.8 13.8v1.8H28v-4.4h1.3c.4 0 .8.1 1 .3.2.2.4.5.4.9 0 .2-.1.4-.2.6-.1.2-.3.3-.5.4.2.1.4.2.5.4.1.2.2.4.2.7v.7c0 .1.1.2.2.3v.1H30c-.1-.1-.1-.2-.1-.3v-.7c0-.2 0-.4-.1-.5-.1-.1-.2-.2-.4-.2h-.6zm0-.7h.5c.2 0 .3-.1.4-.2.1-.1.1-.3.1-.5s0-.4-.1-.5c-.1-.1-.2-.2-.4-.2h-.5v1.4z"/><path id="XMLID_505_" class="law-w" d="M32.2 15.6h-.8v-4.4h.8v4.4z"/><path id="XMLID_507_" class="law-w" d="M35.5 11.8h-1v3.7h-.8v-3.7h-1v-.7h2.9v.7z"/><path id="XMLID_511_" class="law-w" d="M37.6 14.6h-1.1l-.2.9h-.9l1.2-4.4h.9l1.2 4.4h-.9l-.2-.9zm-.9-.7h.7l-.4-1.4-.3 1.4z"/><path id="XMLID_514_" class="law-w" d="M42.2 15.6h-.8L40 12.8v2.8h-.8v-4.4h.8l1.4 2.8v-2.8h.8v4.4z"/><path id="XMLID_516_" class="law-w" d="M45.7 14.2c0 .5-.1.8-.4 1.1-.2.2-.6.3-1.1.3-.5 0-.8-.1-1.1-.4-.3-.3-.4-.7-.4-1.2v-1.3c0-.5.1-.9.4-1.2.3-.3.6-.4 1.1-.4.5 0 .8.1 1.1.3.3.2.4.6.4 1.1h-.8c0-.3 0-.5-.1-.6-.1-.1-.3-.2-.5-.2s-.4.1-.5.2c-.1.2-.2.4-.2.7V14c0 .3.1.6.2.7.1.2.3.2.5.2s.4-.1.5-.2c.1-.1.1-.3.1-.6h.8z"/><path id="XMLID_518_" class="law-w" d="M48.4 13.6h-1.3v1.3h1.6v.7h-2.4v-4.4h2.4v.7h-1.6V13h1.3v.6z"/></g><path id="XMLID_521_" class="law2" d="M16.3 22.7h31.1"/><path id="XMLID_522_" class="law2" d="M16.3 27.7h31.1"/><path id="XMLID_523_" class="law2" d="M16.3 32.8h31.1"/><path id="XMLID_524_" class="law2" d="M16.3 37.8h31.1"/><g id="XMLID_49_"><ellipse id="XMLID_40_" transform="rotate(-80.758 41.5745972 46.5626311)" class="law0" cx="41.6" cy="46.6" rx="4.2" ry="4.2"/><path id="XMLID_57_" class="law0" d="M37.9 48.5l-2.7 5.7 3-1.5.8 3.3 2.4-5.3"/><path id="XMLID_56_" class="law0" d="M45.3 48.5l2.6 5.7-2.9-1.5-.8 3.3-2.4-5.3"/></g><path id="XMLID_53_" class="law2" d="M16.7 43.1h18.5"/><path id="XMLID_54_" class="law2" d="M16.7 48.2h15.9"/></g></svg>