<svg id="Layer_1" xmlns="http://www.w3.org/2000/svg" width="64" height="64" viewBox="0 0 64 64"><style>.law1{fill:none;stroke:#0c2a60;stroke-width:2;stroke-linecap:round;stroke-linejoin:round;stroke-miterlimit:10}.law-w{fill:#0c2a60}</style><g id="XMLID_323_"><path id="XMLID_183_" class="law1" d="M32 61.7l-5.2-4.2-6.3 1.9-3.1-5.8-6.6-.7-.7-6.6-5.9-3.1 2-6.4L2 31.7l4.2-5.1-2-6.4 5.9-3.1.7-6.6 6.6-.6L20.5 4l6.3 1.9L32 1.7l5.1 4.2L43.4 4l3.2 5.9 6.6.6.6 6.6 5.9 3.1-2 6.4 4.3 5.1-4.3 5.1 2 6.4-5.9 3.1-.6 6.6-6.6.7-3.2 5.8-6.3-1.9z"/><path id="XMLID_184_" class="law1" d="M20.7 13.2C24 11.2 27.8 10 32 10c2.7 0 5.2.5 7.6 1.4"/><path id="XMLID_322_" class="law1" d="M40.8 51.5c-2.7 1.2-5.7 1.9-8.8 1.9-12 0-21.7-9.7-21.7-21.7 0-6.1 2.5-11.5 6.5-15.5"/><path id="XMLID_153_" class="law1" d="M46.2 15.4c4.5 4 7.4 9.8 7.4 16.3 0 6-2.4 11.4-6.4 15.3-.9.9-1.8 1.7-2.8 2.4"/><path id="XMLID_186_" class="law-w" d="M24 29.2h-1.1l-1.8-3.6v3.6H20v-5.7h1.1l1.8 3.6v-3.6H24v5.7z"/><path id="XMLID_197_" class="law-w" d="M28.9 27.1c0 .7-.2 1.2-.6 1.6-.4.4-.9.6-1.5.6s-1.1-.2-1.5-.6c-.4-.4-.6-.9-.6-1.6v-1.6c0-.7.2-1.2.6-1.6.4-.4.9-.6 1.5-.6s1.1.2 1.5.6c.4.4.6.9.6 1.6v1.6zm-1.1-1.6c0-.4-.1-.7-.3-.9-.2-.2-.4-.3-.7-.3-.3 0-.6.1-.7.3-.2.2-.2.5-.2.9v1.6c0 .4.1.7.2.9.2.2.4.3.7.3s.6-.1.7-.3c.2-.2.2-.5.2-.9v-1.6z"/><path id="XMLID_204_" class="law-w" d="M33 24.3h-1.3v4.8h-1.1v-4.8h-1.3v-.9H33v.9z"/><path id="XMLID_206_" class="law-w" d="M35.7 27.9h-1.4l-.3 1.3h-1.1l1.6-5.7h1.1l1.6 5.7h-1.1l-.4-1.3zm-1.2-.8h1l-.5-1.8-.5 1.8z"/><path id="XMLID_209_" class="law-w" d="M38.8 26.9v2.3h-1.1v-5.7h1.7c.6 0 1 .1 1.3.4.3.3.5.7.5 1.2 0 .3-.1.5-.2.8-.1.2-.3.4-.6.5.3.1.5.3.6.5.1.2.2.5.2.9v.4c0 .2 0 .3.1.5 0 .2.1.3.2.4v.1h-1.1c-.1-.1-.1-.2-.2-.4v-1c0-.3-.1-.5-.2-.7-.1-.2-.3-.2-.5-.2h-.7zm0-.9h.6c.2 0 .4-.1.5-.2.1-.1.2-.3.2-.6s-.1-.5-.2-.6c-.1-.2-.3-.2-.5-.2h-.6V26z"/><path id="XMLID_302_" class="law-w" d="M43.6 26l1-2.5h1.2l-1.7 3.6v2H43V27l-1.6-3.6h1.2l1 2.6z"/><path id="XMLID_304_" class="law-w" d="M21.4 37.6v2.1h-1.1V34h1.9c.6 0 1 .2 1.4.5.3.3.5.8.5 1.3s-.2 1-.5 1.3c-.3.3-.8.5-1.4.5h-.8zm0-.9h.8c.2 0 .4-.1.6-.3s.2-.4.2-.7c0-.3-.1-.5-.2-.7-.1-.2-.3-.3-.6-.3h-.8v2z"/><path id="XMLID_307_" class="law-w" d="M28.7 34v3.7c0 .6-.2 1.1-.6 1.5-.4.4-.9.5-1.4.5-.6 0-1.1-.2-1.4-.5-.4-.4-.6-.9-.6-1.5V34h1.1v3.7c0 .4.1.7.2.9.2.2.4.3.7.3.3 0 .5-.1.7-.3s.2-.5.2-.9V34h1.1z"/><path id="XMLID_312_" class="law-w" d="M29.5 39.7V34h1.6c.6 0 1.1.1 1.4.4.3.3.5.6.5 1.2 0 .3-.1.5-.2.7-.1.2-.3.4-.5.5.3.1.6.2.7.5.2.2.2.5.2.8 0 .5-.2 1-.5 1.2-.3.3-.8.4-1.3.4h-1.9zm1.1-3.3h.6c.2 0 .4-.1.5-.2.1-.1.2-.3.2-.6s-.1-.5-.2-.6c-.1-.1-.3-.2-.6-.2h-.5v1.6zm0 .7v1.7h.8c.2 0 .4-.1.5-.2.1-.1.2-.3.2-.6s-.1-.5-.2-.6c-.1-.1-.3-.2-.5-.2h-.8z"/><path id="XMLID_316_" class="law-w" d="M35.1 38.8h2.1v.9H34V34h1.1v4.8z"/><path id="XMLID_318_" class="law-w" d="M39 39.7h-1.1V34H39v5.7z"/><path id="XMLID_320_" class="law-w" d="M43.7 37.9c0 .6-.1 1.1-.5 1.4-.3.3-.8.5-1.4.5-.6 0-1.1-.2-1.5-.5-.4-.4-.5-.9-.5-1.5V36c0-.7.2-1.2.5-1.5.3-.4.8-.5 1.4-.5.6 0 1.1.2 1.4.5.3.3.5.8.5 1.4h-1.1c0-.4-.1-.6-.2-.8-.1-.1-.3-.2-.6-.2s-.5.1-.6.3c-.1.2-.2.5-.2.9v1.7c0 .4.1.7.2.9.1.2.4.3.7.3.3 0 .5-.1.6-.2.1-.1.2-.4.2-.8h1.1z"/><circle id="XMLID_175_" class="law-w" cx="32" cy="14.4" r=".9"/><path id="XMLID_326_" class="law-w" d="M37.9 15.4c-.1.5-.6.7-1.1.6-.5-.1-.7-.6-.6-1.1s.6-.7 1.1-.6c.4.2.7.7.6 1.1z"/><circle id="XMLID_328_" class="law-w" cx="41.6" cy="17.4" r=".9"/><path id="XMLID_335_" class="law-w" d="M46 21.5c-.4.3-.9.2-1.2-.1-.3-.4-.2-.9.1-1.2.4-.3.9-.2 1.2.1.3.4.2.9-.1 1.2z"/><path id="XMLID_338_" class="law-w" d="M48.3 26.1c-.5.2-1 0-1.2-.5-.2-.5 0-1 .5-1.2s1 0 1.2.5c.2.5 0 1-.5 1.2z"/><path id="XMLID_340_" class="law-w" d="M49.3 31.1c-.5 0-.9-.3-1-.8 0-.5.3-.9.8-1 .5 0 .9.3 1 .8 0 .5-.3.9-.8 1z"/><path id="XMLID_342_" class="law-w" d="M48.7 36.2c-.5-.1-.8-.6-.7-1 .1-.5.6-.8 1-.7.5.1.8.6.7 1-.1.5-.5.8-1 .7z"/><path id="XMLID_344_" class="law-w" d="M46.7 40.9c-.4-.2-.6-.8-.3-1.2.2-.4.8-.6 1.2-.3.4.2.6.8.3 1.2-.3.4-.8.5-1.2.3z"/><path id="XMLID_346_" class="law-w" d="M43.3 44.8c-.3-.4-.3-.9 0-1.2.4-.3.9-.3 1.2 0 .3.4.3.9 0 1.2-.3.3-.8.3-1.2 0z"/><path id="XMLID_348_" class="law-w" d="M39 47.5c-.2-.4 0-1 .4-1.2s1 0 1.2.4c.2.4 0 1-.4 1.2-.4.2-1 .1-1.2-.4z"/><path id="XMLID_350_" class="law-w" d="M34.1 48.9c-.1-.5.2-.9.7-1 .5-.1.9.2 1 .7.1.5-.2.9-.7 1-.5.1-.9-.2-1-.7z"/><path id="XMLID_352_" class="law-w" d="M29 48.8c.1-.5.5-.8 1-.8.5.1.8.5.8 1-.1.5-.5.8-1 .8-.5-.1-.9-.5-.8-1z"/><path id="XMLID_354_" class="law-w" d="M24.1 47.2c.2-.4.7-.6 1.2-.4.4.2.6.7.4 1.2-.2.4-.7.6-1.2.4-.4-.3-.6-.8-.4-1.2z"/><path id="XMLID_356_" class="law-w" d="M19.9 44.2c.3-.4.9-.4 1.2-.1.4.3.4.9.1 1.2-.3.4-.9.4-1.2.1-.3-.3-.4-.8-.1-1.2z"/><path id="XMLID_358_" class="law-w" d="M16.8 40.1c.4-.3 1-.1 1.2.3.3.4.1 1-.3 1.2-.4.3-1 .1-1.2-.3-.2-.4-.1-.9.3-1.2z"/><path id="XMLID_360_" class="law-w" d="M15 35.3c.5-.1 1 .2 1.1.6.1.5-.2 1-.6 1.1-.5.1-1-.2-1.1-.6-.1-.5.1-.9.6-1.1z"/><ellipse id="XMLID_362_" transform="rotate(-76.154 14.670889 31.1112314)" class="law-w" cx="14.7" cy="31.1" rx=".9" ry=".9"/><path id="XMLID_364_" class="law-w" d="M15.9 25.2c.5.2.7.7.5 1.1-.2.5-.7.7-1.1.5-.5-.2-.7-.7-.5-1.1.1-.4.6-.6 1.1-.5z"/><path id="XMLID_366_" class="law-w" d="M18.5 20.8c.4.3.5.8.2 1.2-.3.4-.8.5-1.2.2-.5-.2-.5-.8-.3-1.2.3-.4.9-.5 1.3-.2z"/><path id="XMLID_368_" class="law-w" d="M22.3 17.4c.3.4.2.9-.2 1.2-.4.3-.9.2-1.2-.2-.3-.4-.2-.9.2-1.2.3-.3.9-.2 1.2.2z"/><path id="XMLID_370_" class="law-w" d="M26.9 15.2c.2.5-.1 1-.5 1.1-.5.2-1-.1-1.1-.5-.2-.5.1-1 .5-1.1.4-.2.9 0 1.1.5z"/></g></svg>