<svg id="Layer_1" xmlns="http://www.w3.org/2000/svg" viewBox="0 0 356 224"><style>.st0{fill:rgba(255,255,255,.65)}.st1{fill:rgba(255,255,255,.35)}.st2{fill:rgba(255,255,255,.85)}.st3{fill:rgba(255,255,255,.45)}</style><path class="st0" d="M19.5 72.2l-2-5.8H7.7l-2 5.8H.9l8.8-24.7h5.6l8.8 24.7h-4.6zm-3.6-10.4l-3.2-9.6-3.2 9.6h6.4zM43.8 72.2l-4.4-17.5L35 72.2h-5l-6-24.7h4.2l4.4 18.9 4.6-18.9h4.4l4.6 18.9 4.4-18.9h4.2l-6 24.7h-5zM126.1 72.2l-2-5.8h-9.8l-2 5.8h-4.7l8.8-24.7h5.6l8.8 24.7h-4.7zm-3.6-10.4l-3.2-9.6-3.2 9.6h6.4zM153.4 55.1c0 4-2.6 6.8-7 7.2l7 10H148l-6.6-9.8H140v9.8h-4.6V47.6h9.6c5.4-.1 8.4 2.7 8.4 7.5zM140.1 58h5c2.4 0 3.8-1 3.8-3s-1.4-3-3.8-3h-5v6zM180.3 59.8c0 7.4-4.8 12.4-11.8 12.4h-9.4V47.5h9.4c7 0 11.8 5 11.8 12.3zm-16.6 7.8h4.8c4.8 0 7.2-3.2 7.2-7.8s-2.4-7.8-7.2-7.8h-4.8v15.6zM194.7 51.7c-2.6 0-4.4 1.2-4.4 3s2 2.4 4.6 2.8l1.2.2c4 .8 7.2 2.6 7.2 7 0 5.4-4.4 8-9.4 8-3.4 0-7.2-1-9.6-3.2l2.4-4c1.6 1.4 4.4 2.6 7.2 2.6 2.6 0 4.4-1 4.4-3 0-1.8-1.6-2.4-4.8-2.8l-1.4-.2c-4-.8-7-2.6-7-7 0-5.2 4.2-7.8 9-7.8 3.2 0 5.8.8 8.6 2.6l-2.2 4c-1.1-1.4-3.2-2.2-5.8-2.2z"/><g><path class="st0" d="M87.7 72.2L92 54.5l4.6 17.7h5l6.2-24.7h-4.2L99 66.4l-4.6-18.9h-4.5l-4.8 18.9-3-12.9-2.2 8.1 2.8 10.6z"/></g><g><path class="st0" d="M61.8 72.2l4.3-17.7 4.6 17.7h5l6.2-24.7h-4.2l-4.6 18.9-4.6-18.9H64l-4.8 18.9-3-12.9-2.2 8.1 2.6 10.6z"/></g><g><path class="st0" d="M217.4 52.1c0 3-2.2 5.2-5 5.2s-5-2.4-5-5.2c0-3 2.2-5.4 5-5.4 2.9 0 5 2.4 5 5.4zm-1 0c0-2.4-1.8-4.4-4-4.4s-4 2-4 4.4 1.8 4.4 4 4.4c2.3 0 4-2 4-4.4zm-2-1c0 .8-.6 1.4-1.6 1.6l1.6 2h-1l-1.6-2h-.6v2h-.8v-5.2h2c1.4 0 2 .6 2 1.6zm-3 .8h1.2c.6 0 1-.2 1-.8s-.4-.8-1-.8h-1.2v1.6z"/></g><g><path class="st1" d="M318.5 50.6L294 26.2l24.5-24.4h-24.6l-24.5 24.4 12.3 12.3L294 50.6l12.3 12.3z"/><path class="st1" d="M335 38.5l-12.2-12.3L310.5 14l-12.1 12.2 24.4 24.4-.1.1-24.5 24.5h24.6L335 63l12.3-12.2zM270.3 91.3c-.7 0-1.2.3-1.6.8-.4.6-.6 1.3-.6 2.3 0 2 .8 3.1 2.3 3.1.5 0 .9-.1 1.4-.2.4-.1.9-.3 1.3-.5v2.4c-.9.4-1.9.6-3 .6-1.6 0-2.8-.5-3.7-1.4-.9-.9-1.3-2.3-1.3-4 0-1.1.2-2.1.6-2.9s1-1.5 1.8-1.9 1.7-.7 2.7-.7c1.1 0 2.2.2 3.3.7l-.9 2.3c-.4-.2-.8-.3-1.2-.5-.2-.1-.6-.1-1.1-.1M282.2 96.5c0 .7-.2 1.2-.5 1.8-.3.5-.8.9-1.4 1.2-.6.3-1.4.4-2.2.4-.7 0-1.3 0-1.8-.1s-1-.3-1.5-.5v-2.6c.5.3 1.1.5 1.7.7s1.1.2 1.6.2c.4 0 .7-.1.9-.2.2-.1.3-.3.3-.6 0-.1 0-.3-.1-.4s-.2-.2-.4-.3l-1.4-.7c-.7-.3-1.2-.6-1.6-.9-.3-.3-.6-.6-.8-1-.2-.4-.3-.8-.3-1.4 0-1 .4-1.7 1.1-2.3.7-.5 1.7-.8 2.9-.8 1.1 0 2.2.3 3.4.8l-.9 2.2c-1-.5-1.8-.7-2.6-.7-.4 0-.6.1-.8.2-.2.1-.3.3-.3.5s.1.4.3.6c.2.2.8.5 1.8.9.9.4 1.5.9 1.9 1.3.5.3.7.9.7 1.7M290.7 96.5c0 .7-.2 1.2-.5 1.8-.3.5-.8.9-1.4 1.2-.6.3-1.4.4-2.2.4-.7 0-1.3 0-1.8-.1s-1-.3-1.5-.5v-2.6c.5.3 1.1.5 1.7.7s1.1.2 1.6.2c.4 0 .7-.1.9-.2.2-.1.3-.3.3-.6 0-.1 0-.3-.1-.4s-.2-.2-.4-.3l-1.4-.7c-.7-.3-1.2-.6-1.6-.9-.3-.3-.6-.6-.8-1-.2-.4-.3-.8-.3-1.4 0-1 .4-1.7 1.1-2.3.7-.5 1.7-.8 2.9-.8 1.1 0 2.2.3 3.4.8l-.9 2.2c-1-.5-1.8-.7-2.6-.7-.4 0-.6.1-.8.2-.2.1-.3.3-.3.5s.1.4.3.6c.2.2.8.5 1.8.9.9.4 1.5.9 1.9 1.3.6.3.7.9.7 1.7M305.2 94.2c0 1.8-.5 3.1-1.5 4.1s-2.3 1.4-4.1 1.4h-3.4V89.1h3.7c1.7 0 3 .4 3.9 1.3 1 .8 1.4 2.1 1.4 3.8m-2.9.1c0-1-.2-1.7-.6-2.2s-1-.7-1.8-.7h-.8v5.9h.6c.9 0 1.5-.3 1.9-.8.5-.4.7-1.2.7-2.2M313.4 99.7h-6.3V89.1h6.3v2.3H310V93h3.2v2.3H310v2h3.4zM322.2 96.5c0 .7-.2 1.2-.5 1.8-.3.5-.8.9-1.4 1.2-.6.3-1.4.4-2.2.4-.7 0-1.3 0-1.8-.1s-1-.3-1.5-.5v-2.6c.5.3 1.1.5 1.7.7s1.1.2 1.6.2c.4 0 .7-.1.9-.2.2-.1.3-.3.3-.6 0-.1 0-.3-.1-.4s-.2-.2-.4-.3l-1.4-.7c-.7-.3-1.2-.6-1.6-.9-.3-.3-.6-.6-.8-1-.2-.4-.3-.8-.3-1.4 0-1 .4-1.7 1.1-2.3.7-.5 1.7-.8 2.9-.8 1.1 0 2.2.3 3.4.8l-.9 2.2c-1-.5-1.8-.7-2.6-.7-.4 0-.6.1-.8.2-.2.1-.3.3-.3.5s.1.4.3.6c.2.2.8.5 1.8.9.9.4 1.5.9 1.9 1.3.6.3.7.9.7 1.7M323.9 89.1h2.9v10.6h-2.9zM333.3 93.5h4.6v5.7c-1.2.4-2.6.6-4.1.6-1.6 0-2.9-.5-3.8-1.4s-1.3-2.3-1.3-4.1c0-1.7.5-3 1.5-4s2.3-1.4 4.1-1.4c.7 0 1.3.1 1.9.2s1.1.3 1.5.5l-.9 2.2c-.8-.4-1.6-.6-2.5-.6-.8 0-1.5.3-1.9.8-.5.5-.7 1.3-.7 2.3s.2 1.7.6 2.3c.4.5 1 .8 1.8.8.4 0 .8 0 1.2-.1v-1.7h-1.9l-.1-2.1zM350.1 99.7h-3.8l-3.9-7.5h-.1c.1 1.2.1 2.1.1 2.7v4.8h-2.5V89.1h3.7l3.9 7.4c-.1-1.1-.1-1.9-.1-2.6v-4.8h2.6l.1 10.6zM282.3 117.5l-.5-2h-3.4l-.5 2h-3.3l3.5-10.6h3.8l3.5 10.6h-3.1zm-1.2-4.3l-.5-1.7c-.1-.4-.2-.9-.4-1.5s-.3-1.1-.3-1.3c0 .2-.1.7-.3 1.2-.1.6-.4 1.7-.9 3.3h2.4zM298 117.5h-3.4l-1-4.6c0-.2-.1-.6-.2-1.2s-.2-1.1-.2-1.4c0 .3-.1.7-.2 1.2s-.2.9-.3 1.3c-.1.4-.4 2-1.1 4.8h-3.4l-2.6-10.7h2.8l1.2 5.3c.3 1.2.4 2.1.5 2.8.1-.5.2-1.2.3-2 .2-.8.3-1.5.5-2.1l.9-4h2.7l.9 4c.2.6.3 1.4.5 2.2.2.8.3 1.5.3 1.9.1-.5.2-1.5.5-2.8l1.2-5.3h2.7l-2.6 10.6zM308.5 117.5l-.5-2h-3.4l-.5 2H301l3.5-10.6h3.8l3.5 10.6h-3.3zm-1.1-4.3l-.5-1.7c-.1-.4-.2-.9-.4-1.5s-.3-1.1-.3-1.3c0 .2-.1.7-.3 1.2-.1.6-.4 1.7-.9 3.3h2.4zM315.6 113.6v3.9h-2.9v-10.6h3.5c2.9 0 4.3 1 4.3 3.1 0 1.2-.6 2.2-1.8 2.8l3.1 4.6h-3.2l-2.2-3.9-.8.1zm0-2.1h.5c1 0 1.5-.4 1.5-1.3 0-.7-.5-1.1-1.5-1.1h-.5v2.4zM331.8 112c0 1.8-.5 3.1-1.5 4.1s-2.3 1.4-4.1 1.4h-3.4v-10.6h3.7c1.7 0 3 .4 3.9 1.3 1 .9 1.4 2.1 1.4 3.8m-3 .1c0-1-.2-1.7-.6-2.2s-1-.7-1.8-.7h-.8v5.9h.6c.9 0 1.5-.3 1.9-.8.5-.4.7-1.2.7-2.2M340.6 114.3c0 .7-.2 1.2-.5 1.8-.3.5-.8.9-1.4 1.2s-1.4.4-2.2.4c-.7 0-1.3 0-1.8-.1s-1-.3-1.5-.5v-2.6c.5.3 1.1.5 1.7.7s1.1.2 1.6.2c.4 0 .7-.1.9-.2.2-.1.3-.3.3-.6 0-.1 0-.3-.1-.4s-.2-.2-.4-.3l-1.4-.7c-.7-.3-1.2-.6-1.6-.9-.3-.3-.6-.6-.8-1-.2-.4-.3-.8-.3-1.4 0-1 .4-1.7 1.1-2.3.7-.5 1.7-.8 2.9-.8 1.1 0 2.2.3 3.4.8l-.9 2.2c-1-.5-1.8-.7-2.6-.7-.4 0-.6.1-.8.2-.2.1-.3.3-.3.5s.1.4.3.6c.2.2.8.5 1.8.9.9.4 1.5.9 1.9 1.3.6.4.7 1 .7 1.7"/></g><path class="st2" d="M49.7 110.2c2.9 0 4.7.7 6.1 1.5l-2.1 4.3c-1.1-.4-2.1-.6-3-.6-1.3 0-2.3.5-2.9 1.1-.9 1-1.2 2.3-1.2 3.9 0 2.7 1 5.1 4.3 5.1 1 0 2.3-.2 3.3-.5l1.3 4.4c-1.6.7-3.5 1.3-6.6 1.3-5.8 0-9.6-3.8-9.6-10 .1-5.6 4-10.5 10.4-10.5zm13.5 0c6 0 10.4 1.7 10.4 6.6 0 2.6-1.1 4.6-3 5.8l2.9 5.5c.4.6.7 1.5.7 2.2h-6.9l-2.7-6h-1.2v6h-6.8v-19.6c1.2-.3 4.1-.5 6.6-.5zm2.6 9.1c.4-.2.9-.9.9-1.9 0-1.6-.7-2.3-2.4-2.3h-1v4.6h.7c.8.1 1.4-.1 1.8-.4zm23.8-8.7l-.2 4.7H82v2.8h5.4v4.6H82v2.9h7.3l.2 4.7H75.2v-19.8l14.4.1zm14.1-.2l5.4 16.9c.4 1.1.5 2.1.5 2.9H103l-.9-3h-5.4l-.9 3h-6.5c0-.7.1-1.8.5-2.9l5.8-16.8 8.1-.1zM98 122.7h3l-.4-1.5-.9-4.9h-.2l-1.5 6.4zm25.9-12.1l-.2 5h-4.9v14.9h-6.7v-14.9h-4.9l-.4-5h17.1zm7.8 0v19.8h-6.8v-19.8h6.8zm20.7 0c0 1-.2 2.2-.6 3.5l-5.4 16.3-8 .1-5.2-16.3c-.5-1.6-.7-2.7-.7-3.5h7.1l2.1 8.6.9 4.4h.1l3.3-13.2 6.4.1zm15.2 0l-.2 4.7h-7.3v2.8h5.4v4.6h-5.4v2.9h7.3l.2 4.7h-14.4v-19.8l14.4.1zm-112 24.6l-.2 4.7h-7.2v4h5.2v4.6h-5.2v6.5h-6.8v-19.8h14.2zm7.9-.4c6 0 10.4 1.7 10.4 6.6 0 2.6-1.1 4.6-3 5.8l2.9 5.5c.4.6.7 1.5.7 2.2h-6.9l-2.7-6h-1.2v6h-6.8v-19.6c1.2-.1 4.2-.5 6.6-.5zm2.5 9.3c.5-.4.9-.9.9-2.1 0-1.5-.7-2.2-2.3-2.2h-1v4.6h.7c.9 0 1.4-.1 1.7-.3zm18.7-9.3c6.6 0 9.5 4.6 9.5 10.1 0 6.2-3.9 10.5-10.1 10.5-6.6 0-9.5-4.6-9.5-10.1 0-6.4 3.9-10.5 10.1-10.5zm-.3 4.9c-.7 0-1.3.4-1.7 1-.7 1-1 2.7-1 4.4 0 2.6.7 5.4 2.7 5.4.7 0 1.3-.4 1.7-.9.7-1.1 1-3 1-4.7 0-2.8-.7-5.2-2.7-5.2zm17.8-4.5l4.7 7.8 1.7 3.4h.1l-.2-3.8v-7.4h5.6V155h-6.6l-4.9-8-1.7-3.4h-.1l.2 3.9v7.7h-5.6v-20h6.8zm30.1 0l-.2 5h-4.9v14.9h-6.7v-14.9h-4.9l-.2-5h16.9zm15.5 0l-.2 4.7h-7.3v2.8h5.4v4.6h-5.4v2.9h7.3l.2 4.7h-14.4v-19.8h14.4v.1zm8.1 0l4.7 7.8 1.7 3.4h.1l-.2-3.8v-7.4h5.6V155h-6.6l-4.9-8-1.7-3.4h-.1l.2 3.9v7.7h-5.6v-20h6.8zm21.7-.4c7.4 0 10.8 4.4 10.8 10.1 0 6.1-4 10.4-11.3 10.4-2.6 0-5.2-.1-7.3-.5v-19.5c2.2-.3 4.5-.5 7.8-.5zm2.4 14.7c1-.9 1.5-2.6 1.5-4.5 0-3.2-1.1-5.2-3.7-5.2h-1.1v10.6h1.2c1 0 1.6-.4 2.1-.9z"/><circle class="st2" cx="10.2" cy="119.5" r="9.3"/><g><path class="st3" d="M278 214.5v1.1c-.3-.2-.6-.2-.8-.2-.3 0-.5.1-.7.2-.2.1-.4.4-.5.7-.1.3-.2.7-.3 1.1-.1.5-.1 1-.1 1.6 0 2.2.6 3.4 1.7 3.4.2 0 .4-.1.7-.2v1.1c-.3.2-.6.2-1 .2-1.8 0-2.8-1.5-2.8-4.5 0-1.6.2-2.8.7-3.6.4-.8 1.1-1.2 2.1-1.2.4 0 .7.1 1 .3zM283.2 219.1c0 1.6-.2 2.8-.5 3.4-.4.7-1 1-1.8 1-.9 0-1.5-.4-1.9-1.1-.4-.7-.5-2-.5-3.8 0-1.6.2-2.8.5-3.4.4-.7 1-1 1.8-1s1.3.3 1.7.8c.2.3.4.8.5 1.5.1.6.2 1.5.2 2.6zm-1.3.1c0-1.6-.1-2.6-.2-3.1s-.4-.8-.9-.8c-.4 0-.7.2-.9.7-.1.5-.2 1.4-.2 2.9 0 1.3.1 2.3.2 2.8.2.5.4.7.9.7.4 0 .7-.2.8-.7.2-.4.3-1.2.3-2.5zM284.5 214.3h1l.8 3.7c.1.5.2.9.3 1.4.1.5.2 1 .2 1.5v-.2-.1l.2-1 .2-1 .1-.7.7-3.6h1.1l.8 9.1h-1.2l-.2-3.1v-.4-.3l-.1-1.2v-1.1-.1.2c0 .2-.1.4-.1.6 0 .2 0 .3-.1.4l-.2.8-.1.3-.8 4h-.8l-.7-3.4c-.1-.5-.2-.9-.3-1.4-.1-.5-.1-1-.2-1.5l-.4 6.3h-1.2l1-9.2zM291 214.3h1l.8 3.7c.1.5.2.9.3 1.4.1.5.2 1 .2 1.5v-.2-.1l.2-1 .2-1 .1-.7.7-3.6h1.1l.8 9.1h-1.2l-.2-3.1v-.4-.3l-.1-1.2v-1.1-.1.2c0 .2-.1.4-.1.6 0 .2 0 .3-.1.4l-.2.8-.1.3-.8 4h-.6l-.7-3.4c-.1-.5-.2-.9-.3-1.4-.1-.5-.1-1-.2-1.5l-.4 6.3h-1.2l.8-9.2zM297.1 214.3h1.2v6.4c0 .7.1 1.1.2 1.3.1.2.4.3.7.3.4 0 .6-.1.7-.3.1-.2.2-.6.2-1.2v-6.6h1.2v6.6c0 1-.2 1.7-.5 2-.4.4-.9.6-1.7.6-.8 0-1.4-.3-1.7-.8-.2-.4-.3-1-.3-2v-6.3zM302.3 214.3h1.1l1.2 3.6c.4 1 .7 2.1.9 3.3-.1-.7-.2-1.3-.2-1.9 0-.6-.1-1.1-.1-1.6v-3.4h1.2v9.1h-1.1l-1.4-4.1c-.1-.4-.2-.8-.4-1.2-.1-.4-.2-.8-.3-1.3v-.2c0-.1 0-.2-.1-.3v.5l.1.9.1 1.1v.5l.1 4h-1.2v-9zM307.6 214.3h1.2v9.1h-1.2v-9.1zM313.5 214.5v1.1c-.3-.2-.6-.2-.8-.2-.3 0-.5.1-.7.2-.2.1-.4.4-.5.7-.1.3-.2.7-.3 1.1-.1.5-.1 1-.1 1.6 0 2.2.6 3.4 1.7 3.4.2 0 .4-.1.7-.2v1.1c-.3.2-.6.2-1 .2-1.8 0-2.8-1.5-2.8-4.5 0-1.6.2-2.8.7-3.6.5-.8 1.1-1.2 2.1-1.2.3 0 .6.1 1 .3zM315.8 214.3h1l2 9.1h-1.2l-.3-1.8h-1.8l-.3 1.8H314l1.8-9.1zm1.1 6.4l-.3-1.5c-.2-1-.3-2-.4-3.2-.1.5-.1 1.1-.2 1.7l-.3 1.8-.2 1.2h1.4zM318.1 214.3h4v1.1h-1.4v8h-1.2v-8h-1.4v-1.1zM322.4 214.3h1.2v9.1h-1.2v-9.1zM329.2 219.1c0 1.6-.2 2.8-.5 3.4-.4.7-1 1-1.8 1-.9 0-1.5-.4-1.9-1.1-.4-.7-.5-2-.5-3.8 0-1.6.2-2.8.5-3.4.4-.7 1-1 1.8-1s1.3.3 1.7.8c.2.3.4.8.5 1.5.2.6.2 1.5.2 2.6zm-1.2.1c0-1.6-.1-2.6-.2-3.1s-.4-.8-.9-.8c-.4 0-.7.2-.9.7-.1.5-.2 1.4-.2 2.9 0 1.3.1 2.3.2 2.8.2.5.4.7.9.7.4 0 .7-.2.8-.7.2-.4.3-1.2.3-2.5zM330.1 214.3h1.1l1.2 3.6c.4 1 .7 2.1.9 3.3-.1-.7-.2-1.3-.2-1.9 0-.6-.1-1.1-.1-1.6v-3.4h1.2v9.1h-1.1l-1.4-4.1c-.1-.4-.2-.8-.4-1.2-.1-.4-.2-.8-.3-1.3v-.2c0-.1 0-.2-.1-.3v.5l.1.9.1 1.1v.5l.1 4H330v-9zM338.8 214.3h1l2 9.1h-1.2l-.3-1.8h-1.8l-.3 1.8H337l1.8-9.1zm1.2 6.4l-.3-1.5c-.2-1-.3-2-.4-3.2-.1.5-.1 1.1-.2 1.7l-.3 1.8-.2 1.2h1.4zM342.1 214.3h1.6c.7 0 1.2.2 1.5.5.4.4.6 1 .6 1.9 0 .7-.1 1.2-.3 1.6-.2.4-.5.6-.9.7l1.7 4.4H345l-1.7-4.5v4.5h-1.2v-9.1zm1.2 4.1c.5 0 .8-.1 1-.3.2-.2.3-.6.3-1.1 0-.3 0-.5-.1-.7 0-.2-.1-.4-.2-.5l-.3-.3c-.1-.1-.3-.1-.5-.1h-.2v3zM346.2 214.3h4v1.1h-1.4v8h-1.2v-8h-1.4v-1.1zM353.8 214.5v1.2c-.4-.3-.7-.4-1-.4-.3 0-.6.1-.8.3-.2.2-.3.5-.3.9 0 .3.1.6.2.8.1.1.2.3.4.5l.7.7c.5.5.8.9 1 1.3.2.4.3.8.3 1.3 0 .7-.2 1.3-.6 1.7-.4.4-.9.7-1.5.7-.5 0-1-.1-1.3-.4v-1.2c.4.3.8.5 1.2.5.3 0 .6-.1.8-.3.2-.2.3-.5.3-.9 0-.3-.1-.6-.2-.9-.1-.1-.2-.3-.3-.4-.1-.2-.3-.3-.5-.5l-.8-.8c-.2-.2-.4-.4-.5-.6-.2-.3-.3-.8-.3-1.3 0-.7.2-1.3.6-1.7.4-.4.9-.6 1.5-.6.3-.2.7-.1 1.1.1z"/><path d="M350.1 188.4c0 1 .1 5.9.1 6.7 0 5.3-.7 7.2-2.3 7.2-1.4 0-1.8-.5-1.8-3.2v-36.5c0-13.8-6.2-20.6-19-20.6-5.7 0-10.4 1.6-14 4.8-3.6 3.2-5.4 7.3-5.4 12.3 0 5.8 3.3 9.3 8.5 9.3 4.3 0 7.2-2.7 7.2-6.8 0-4.4-2-6.8-5.8-6.8-1.2 0-1.8.1-2.4.2 1.4-3.7 4.7-5.9 8.9-5.9 5.9 0 9.6 4.1 9.6 10.7 0 5.3-2.5 9-9.4 12.9-.8.4-1.9 1-3.5 1.8-4.4 2.2-7.7 4.4-9.9 6.4-1.3 1.3-2.4 2.8-3.1 4.5 0-1.7 0-3.1-.2-3.9h-7.3c0 13.8-2.3 20.3-7.8 20.3-2.9 0-5-1.9-6.2-5.6-1.2-3.8-1.8-10.7-1.8-21 0-8.9.7-15.3 2.1-19.1 1.4-3.9 3.6-5.8 6.8-5.8 3.6 0 6.3.5 6.6 4.4-.5-.2-1.1-.4-1.7-.4-3.1 0-5.5 3-5.5 7.2 0 4.7 2.6 7.7 6.6 7.7 4.9 0 8.1-4.4 8.1-11.3 0-5.5-1.6-7.8-4.6-11-3.1-3.2-7.2-4.8-12.5-4.8-12.9 0-19 11-19 34.5 0 12.4 1.5 21 4.5 26.1 3 5 8.1 7.5 15.2 7.5 7.8 0 13-4.3 15.3-12.6 1.1 8 6.2 12.8 13.6 12.8 6 0 10.1-2.6 13.7-8.5 1.6 5.8 5.1 8.5 10.8 8.5 7.2 0 10.4-4.5 10.4-14.9v-6.9h-4.8zm-17.1-2.9c0 9.5-2.3 13.8-7.5 13.8-3.5 0-6.4-3-6.4-6.8 0-3.6 2.5-7.5 7.6-11.9 2.8-2.4 4.9-4.3 6.3-5.9v10.8z" fill="rgba(255,255,255,.5)"/></g></svg>