<svg id="Layer_1" xmlns="http://www.w3.org/2000/svg" width="98" height="130"><style>.st1{fill:#fff}</style><path class="st1" d="M10.7 125.2H9.4l3-7h1.4l3 7h-1.4l-.8-1.9h-2.3l.4-1.1h1.4l-1.1-2.6-2.3 5.6zM19.6 125.2v-7h2.7c2.3 0 3.5 1.1 3.5 3.3 0 2.5-1.2 3.7-3.5 3.7h-2.7zm2.8-1.2c1.4 0 2.2-.9 2.2-2.6 0-1.5-.7-2.2-2.2-2.2H21v4.7h1.4zM35.6 118.2l-3.1 7h-1.4l-2.9-7h1.5l2.2 5.3 2.2-5.3h1.5zM38.1 121.7c0-2.4 1.2-3.5 3.5-3.5s3.5 1.2 3.5 3.5c0 2.4-1.2 3.5-3.5 3.5s-3.4-1.2-3.5-3.5zm3.5 2.4c1.4 0 2.1-.8 2.1-2.4 0-1.6-.7-2.4-2.1-2.4-1.4 0-2.2.8-2.2 2.4 0 1.6.7 2.4 2.2 2.4zM53.8 124.9c-.6.2-1.3.3-2.1.3-2.5 0-3.8-1.2-3.8-3.6 0-2.3 1.3-3.4 3.8-3.4.8 0 1.4.1 2.1.3v1.2c-.6-.3-1.3-.4-2-.4-1.7 0-2.5.8-2.5 2.3 0 1.7.8 2.5 2.5 2.5.7 0 1.4-.1 2-.4v1.2zM57.7 125.2h-1.3l3-7h1.4l3 7h-1.4l-.8-1.9h-2.3l.4-1.1h1.4l-1.1-2.6-2.3 5.6zM70.5 118.2v1.1h-2v5.9h-1.3v-5.9h-2v-1.1h5.3zM78 118.2v1.1h-3.5v1.8h3.3v1.2h-3.3v1.8h3.6v1.1h-4.8v-7H78zM81.1 124.9v-1.2c.7.3 1.5.4 2.4.4 1.1 0 1.6-.4 1.6-1.1 0-.5-.3-.8-1-.8H83c-1.4 0-2.1-.7-2.1-2 0-1.4 1-2.1 3.1-2.1.8 0 1.5.1 2.2.3v1.2c-.7-.3-1.4-.4-2.2-.4-1.2 0-1.8.3-1.8 1 0 .5.3.8.8.8h1.1c1.5 0 2.3.7 2.3 2 0 1.5-1 2.2-2.9 2.2-.9 0-1.7-.1-2.4-.3zM10.9 94.8c0-1-.1-2.1-.2-3.6 1.3 0 3.4.1 6.5.1s5.2 0 6.5-.1c-.1 1.4-.2 2.6-.2 3.6 0 .6 0 1.1.1 1.6h-.5c-.2-1.2-.5-2.1-.9-2.8-.3-.7-.7-1.2-1.2-1.5-.5-.3-1-.4-1.7-.4h-.5v12c0 .6.1 1 .2 1.3.1.3.3.4.6.5s.8.1 1.4.2v.4c-1.8 0-3.1-.1-4-.1-.9 0-2.2 0-3.8.1v-.4c.7 0 1.1-.1 1.4-.2s.5-.3.6-.5c.1-.3.2-.7.2-1.3v-12h-.5c-.7 0-1.2.1-1.7.4s-.9.8-1.2 1.5c-.3.7-.6 1.6-.9 2.8h-.5c.3-.4.3-1 .3-1.6zM30.3 95.5c.5-.4 1.1-.6 1.7-.6.4 0 .8.1 1.1.3s.5.4.6.7c.1.3.2.6.2.9 0 .5-.2.9-.5 1.3s-.7.5-1.2.5-.9-.1-1.1-.4c-.3-.2-.4-.6-.4-1 0-.7.3-1.2.9-1.6h-.3c-.1 0-.2 0-.3.1-.4.1-.7.2-1 .5-.3.3-.5.6-.7 1-.2.4-.3.8-.3 1.2v5.6c0 .7.2 1.1.5 1.3.3.2.8.4 1.5.4v.4c-1.8-.1-2.9-.1-3.3-.1-.4 0-1.4 0-3 .1v-.4c.3 0 .6 0 .8-.1.2-.1.3-.2.4-.5s.1-.5.1-.9v-6.6c0-.6-.1-1.1-.3-1.4-.2-.3-.5-.4-1-.4v-.4c.4 0 .9.1 1.3.1 1.2 0 2.3-.1 3.1-.3V97c.3-.6.7-1.1 1.2-1.5zM45.3 105.2c.2.3.5.4 1 .4v.4c-.4 0-.9-.1-1.3-.1-1.2 0-2.3.1-3.1.3v-1.9c-.6 1.3-1.8 2-3.4 2-1 0-1.8-.3-2.3-.8-.2-.3-.4-.6-.5-1-.1-.4-.1-1-.1-1.7v-5.3c0-.6-.1-1.1-.3-1.4-.2-.3-.5-.4-1-.4v-.4c.4 0 .9.1 1.3.1 1.2 0 2.2-.1 3.1-.3v8.7c0 .6.1 1 .3 1.3.2.3.5.4 1 .4.4 0 .7-.1 1-.3.3-.2.6-.5.7-.9.2-.4.3-.8.3-1.2v-5.5c0-.6-.1-1.1-.3-1.4-.2-.3-.5-.4-1-.4v-.4c.4 0 .9.1 1.3.1 1.2 0 2.2-.1 3.1-.3v8.8c-.1.5 0 .9.2 1.2zM48.8 93.2c.1-.6.2-1 .4-1.4.2-.4.5-.7.8-1.1.3-.3.7-.6 1.2-.8.5-.2 1.1-.3 1.6-.3.9 0 1.6.2 2.2.7.2.2.4.4.5.7.1.3.2.6.2.9 0 .3-.1.5-.2.7-.1.2-.3.4-.5.5-.2.1-.5.2-.8.2-.5 0-.9-.1-1.2-.4-.3-.3-.4-.6-.4-1.1 0-.4.1-.7.3-1 .2-.3.5-.5.9-.6 0-.1-.1-.2-.3-.2-.1-.1-.3-.1-.5-.1-.5 0-.9.2-1.1.6-.2.2-.3.5-.3.9-.1.4-.1 1-.1 1.8v1.9h2.2v.4h-2.2v8.3c0 .7.2 1.1.5 1.3.3.2.8.4 1.5.4v.4c-2-.1-3.2-.1-3.6-.1-.4 0-1.3 0-2.7.1v-.4c.3 0 .6 0 .8-.1.2-.1.3-.2.4-.5s.1-.5.1-.9v-8.5h-1.4v-.4h1.4c.1-.6.2-1.3.3-1.9zM63.5 96.3c.9.9 1.4 2.4 1.4 4.4 0 2-.5 3.4-1.4 4.3-.9.9-2.2 1.4-3.8 1.4s-2.8-.4-3.7-1.4c-.9-.9-1.4-2.4-1.4-4.3s.5-3.4 1.4-4.4c.9-.9 2.2-1.4 3.8-1.4s2.8.5 3.7 1.4zm-5.2.4c-.4.9-.5 2.2-.5 4 0 1.8.2 3.1.5 4 .4.9.8 1.3 1.4 1.3.6 0 1.1-.4 1.4-1.3.4-.9.5-2.2.5-4 0-1.8-.2-3.1-.5-4-.4-.9-.8-1.3-1.4-1.3-.6 0-1 .4-1.4 1.3zM71.7 95.5c.5-.4 1.1-.6 1.7-.6.4 0 .8.1 1.1.3s.5.4.6.7c.1.3.2.6.2.9 0 .5-.2.9-.5 1.3s-.7.5-1.2.5-.9-.1-1.1-.4c-.3-.2-.4-.6-.4-1 0-.7.3-1.2.9-1.6h-.3c-.1 0-.2 0-.3.1-.4.1-.7.2-1 .5-.3.3-.5.6-.7 1-.2.4-.3.8-.3 1.2v5.6c0 .7.2 1.1.5 1.3.3.2.8.4 1.5.4v.4c-1.8-.1-2.9-.1-3.3-.1-.4 0-1.4 0-3 .1v-.4c.3 0 .6 0 .8-.1.2-.1.3-.2.4-.5.1-.2.1-.5.1-.9v-6.6c0-.6-.1-1.1-.3-1.4-.2-.3-.5-.4-1-.4v-.4c.4 0 .9.1 1.3.1 1.2 0 2.3-.1 3.1-.3V97c.3-.6.7-1.1 1.2-1.5zM86.3 105.2c.2.3.5.4 1.1.4v.4c-.4 0-.9-.1-1.3-.1-1.2 0-2.3.1-3.1.3v-1.8c-.5 1.3-1.4 1.9-2.7 1.9-.9 0-1.6-.2-2.3-.6-.6-.4-1.1-1.1-1.5-1.9-.4-.9-.5-1.9-.5-3.2 0-1.2.2-2.3.6-3.1.4-.8 1-1.5 1.7-1.9.7-.4 1.5-.6 2.4-.6 1 0 1.8.3 2.3.8v-3.6c0-.6-.1-1.1-.3-1.4-.2-.3-.5-.4-1-.4V90c.4 0 .9.1 1.3.1 1.2 0 2.3-.1 3.1-.3v14.1c-.1.6 0 1 .2 1.3zm-4.8-9.6c-.7 0-1.3.4-1.7 1.3-.4.9-.6 2.1-.6 3.8 0 3.2.6 4.8 2 4.8.3 0 .6-.1.9-.2s.5-.4.7-.7c.2-.3.3-.6.3-1v-7.4c-.5-.4-1-.6-1.6-.6z"/><circle class="st1" cx="25.9" cy="2.3" r="2.1"/><circle class="st1" cx="49" cy="2.3" r="2.1"/><circle class="st1" cx="72.1" cy="2.3" r="2.1"/><path class="st1" d="M22.1 10.1v50.6L49 80l26.9-19.3V10.1H22.1zM74.6 60L49 78.4 23.4 60V11.4h51.1V60z"/><path class="st1" d="M63 66.7h.1v-.1l10.2-7.3V12.7H24.7v46.6L49 76.8l14-10.1zM48.1 25.4c-1.1-.4-2-1.5-2-2.8 0-1.6 1.3-2.9 2.9-2.9 1.6 0 2.9 1.3 2.9 2.9 0 1.3-.8 2.4-2 2.8v-2.8H48v2.8zM48 64.8H35l-3.8-2.7H48v2.7zm0 1.9v7.4l-10.3-7.4H48zm23.7-52.4v41.1H52.2v1.9h19.4v1.1l-2.5 1.8V60h-17v1.9h14.6l-3.8 2.7H52.1v1.9h8.1L50 74.1V27.2c2.1-.4 3.7-2.3 3.7-4.5 0-2.6-2.1-4.6-4.6-4.6-2.6 0-4.6 2.1-4.6 4.6 0 2.2 1.6 4.1 3.7 4.5v2H35.7v1.7h12.4v24.7H26.3V14.3h45.4zM26.3 57.4H48v2.7H28.6l-2.2-1.6v-1.1z"/><path class="st1" d="M52.2 29.1h10.2v1.7H52.2zM41.7 44.9l.8-1.2-4.9-11h-1.5l-4.9 11 .8 1.2h9.7zm-4.9-9.8l3.6 8.1h-7.2l3.6-8.1zM32.8 48.3h8.1v1.3h-8.1zM31.2 45.8h11.3v1.5H31.2zM60.4 32.7l-4.9 11 .8 1.2h9.8l.8-1.2-4.9-11h-1.6zm-2.8 10.5l3.6-8.1 3.6 8.1h-7.2zM57.1 48.3h8.1v1.3h-8.1zM55.6 45.8h11.3v1.5H55.6z"/></svg>