<svg id="Layer_1" xmlns="http://www.w3.org/2000/svg" width="60" height="60"><style>.st1{fill:#fff}</style><path class="st1" d="M10.9 5.2v35.9L30 54.8l19.1-13.7V5.2H10.9zm37.2 35.4L30 53.6l-18.1-13V6.1h36.3v34.5z"/><path class="st1" d="M39.9 45.4l7.3-5.2V7.1H12.8v33.1L30 52.5l9.9-7.1zM29.3 16.1c-.8-.3-1.4-1.1-1.4-2 0-1.2.9-2.1 2.1-2.1 1.2 0 2.1.9 2.1 2.1 0 .9-.6 1.7-1.4 2v-2h-1.4v2zm0 27.9h-9.2l-2.7-1.9h11.9V44zm0 1.4v5.2L22 45.4h7.3zM46.1 8.2v29.2H32.3v1.4h13.8v.8l-1.7 1.3v-.1H32.2v1.4h10.3L39.9 44h-7.7v1.4H38l-7.3 5.2V17.3c1.5-.3 2.6-1.6 2.6-3.2 0-1.8-1.5-3.3-3.3-3.3-1.8 0-3.3 1.5-3.3 3.3 0 1.6 1.1 2.9 2.6 3.2v1.4h-8.8v1.2h8.8v17.5H13.9V8.2h32.2zM13.9 38.8h15.4v1.9H15.5l-1.6-1.1v-.8z"/><path class="st1" d="M32.2 18.7h7.2v1.2h-7.2zM24.8 29.9l.5-.8-3.5-7.8h-1.1L17.4 29l.5.8h6.9zM21.4 23l2.5 5.7h-5.1l2.6-5.7zM18.5 32.3h5.8v.9h-5.8zM17.4 30.6h8v1.1h-8zM38.1 21.2L34.6 29l.5.8H42l.5-.8-3.5-7.8h-.9zm-2 7.5l2.5-5.7 2.5 5.7h-5zM35.8 32.3h5.8v.9h-5.8zM34.6 30.6h8v1.1h-8z"/></svg>